<svg class="animated" id="freepik_stories-diving-with-animals" xmlns="http://www.w3.org/2000/svg" viewBox="0 0 500 500" version="1.1" xmlns:xlink="http://www.w3.org/1999/xlink" xmlns:svgjs="http://svgjs.com/svgjs"><style>svg#freepik_stories-diving-with-animals:not(.animated) .animable {opacity: 0;}svg#freepik_stories-diving-with-animals.animated #freepik--Plants--inject-1 {animation: 1.5s Infinite  linear floating;animation-delay: 0s;}svg#freepik_stories-diving-with-animals.animated #freepik--Stingray--inject-1 {animation: 6s Infinite  linear floating;animation-delay: 0s;}svg#freepik_stories-diving-with-animals.animated #freepik--Character--inject-1 {animation: 6s Infinite  linear floating;animation-delay: -3.5s;}svg#freepik_stories-diving-with-animals.animated #freepik--Turtles--inject-1 {animation: 6s Infinite  linear floating;animation-delay: 0s;}            @keyframes floating {                0% {                    opacity: 1;                    transform: translateY(0px);                }                50% {                    transform: translateY(-10px);                }                100% {                    opacity: 1;                    transform: translateY(0px);                }            }        .animator-hidden { display: none; }</style><g id="freepik--Shadow--inject-1" class="animable animator-active animator-hidden" style="transform-origin: 250px 439.408px;"><path d="M418.08639,439.4081c0,3.3867-75.2548,6.1322-168.08639,6.1322s-168.0864-2.7455-168.0864-6.1322,75.2548-6.1323,168.0864-6.1323,168.08639,2.7455,168.08639,6.1323Z" style="fill: rgb(245, 245, 245); transform-origin: 250px 439.408px;" id="elmmgzfh00pu" class="animable"></path></g><g id="freepik--Rocks--inject-1" class="animable animator-hidden" style="transform-origin: 262.05px 398.065px;"><g id="eln0kzmookybq" class="animable" style="transform-origin: 141.587px 399.508px;"><g id="eltk2qcq9c1ha" class="animable" style="transform-origin: 141.587px 399.508px;"><path d="M169.5069,408.4055c-1.4047,2.4314-4.1308,3.7929-6.9388,3.7929h-34.2932c-14.1277,0-23.831-14.4163-5.3947-23.1493,16.7078-7.9142,53.8701,6.8192,46.6267,19.3564Z" style="fill: rgb(0, 255, 136); transform-origin: 141.587px 399.508px;" id="eld1b1u1nbqp" class="animable"></path><g id="el32sr2ubrj13"><path d="M169.5069,408.4055c-1.4047,2.4314-4.1308,3.7929-6.9388,3.7929h-34.2932c-14.1277,0-23.831-14.4163-5.3947-23.1493,16.7078-7.9142,53.8701,6.8192,46.6267,19.3564Z" style="fill: rgb(255, 255, 255); opacity: 0.2; transform-origin: 141.587px 399.508px;" class="animable"></path></g></g><g id="el66viv29pm2i"><path d="M158.6661,396.2198c-.4601,1.0955-2.9372,1.136-5.5328,.0906s-4.3269-2.781-3.8668-3.8765c.4599-1.0954,2.937-1.136,5.5328-.0906,2.5955,1.0455,4.3269,2.7811,3.8668,3.8765Z" style="fill: rgb(255, 255, 255); opacity: 0.4; transform-origin: 153.966px 394.327px;" class="animable"></path></g><g id="elz64zwjt6qsa"><path d="M163.2809,401.3887c-.2767,.5862-1.3896,.6934-2.4856,.2395-1.0961-.4538-1.7603-1.2969-1.4836-1.8831,.2767-.5863,1.3895-.6934,2.4856-.2396,1.0961,.4539,1.7603,1.297,1.4836,1.8832Z" style="fill: rgb(255, 255, 255); opacity: 0.4; transform-origin: 161.296px 400.567px;" class="animable"></path></g><g id="el2jhgvo5n4ad"><path d="M156.2885,400.4294c-.2011,.4421-.8938,.5781-1.5469,.3036-.6532-.2745-1.0196-.8556-.8184-1.2978,.2011-.4421,.8938-.5781,1.547-.3036,.6531,.2745,1.0196,.8556,.8183,1.2978Z" style="fill: rgb(255, 255, 255); opacity: 0.4; transform-origin: 155.106px 399.932px;" class="animable"></path></g></g><g id="elzdrqis6c6m" class="animable" style="transform-origin: 186.073px 391.585px;"><g id="elfi87vu04ze" class="animable" style="transform-origin: 186.073px 391.585px;"><path d="M202.91209,396.9512c-.8472,1.4665-2.4915,2.2877-4.18509,2.2877h-20.6838c-8.5211,0-14.3736-8.6951-3.2538-13.9624,10.0773-4.7735,32.4916,4.1129,28.1227,11.6747Z" style="fill: rgb(0, 255, 136); transform-origin: 186.073px 391.585px;" id="elyyhgyv4hld" class="animable"></path><g id="elqxyhcvnmypf"><path d="M202.91209,396.9512c-.8472,1.4665-2.4915,2.2877-4.18509,2.2877h-20.6838c-8.5211,0-14.3736-8.6951-3.2538-13.9624,10.0773-4.7735,32.4916,4.1129,28.1227,11.6747Z" style="fill: rgb(255, 255, 255); opacity: 0.2; transform-origin: 186.073px 391.585px;" class="animable"></path></g></g><g id="eludiqr5r7xwl"><path d="M196.3735,389.6015c-.2775,.6607-1.7715,.6851-3.3371,.0546-1.5655-.6305-2.6097-1.6773-2.3322-2.3381,.2774-.6607,1.7715-.6852,3.3371-.0546,1.5655,.6306,2.6097,1.6774,2.3322,2.3381Z" style="fill: rgb(255, 255, 255); opacity: 0.4; transform-origin: 193.539px 388.46px;" class="animable"></path></g><g id="elqktre3ewzmj"><path d="M199.15689,392.7191c-.16689,.3536-.8381,.4182-1.4991,.1445-.6612-.2738-1.0617-.7823-.8948-1.1358,.1668-.3536,.838-.4183,1.49909-.1445,.6611,.2737,1.0617,.7822,.8948,1.1358Z" style="fill: rgb(255, 255, 255); opacity: 0.4; transform-origin: 197.96px 392.223px;" class="animable"></path></g><g id="elfbl8okn2oq"><path d="M194.9395,392.1405c-.1213,.2667-.5391,.3486-.933,.1831-.394-.1656-.615-.516-.4936-.7827,.1213-.2667,.5391-.3487,.9331-.1832,.3939,.1656,.6149,.5161,.4935,.7828Z" style="fill: rgb(255, 255, 255); opacity: 0.4; transform-origin: 194.226px 391.841px;" class="animable"></path></g></g><g id="ellxhih0j4ic" class="animable" style="transform-origin: 386.876px 398.151px;"><g id="el4d1tjobpz9a" class="animable" style="transform-origin: 386.876px 398.151px;"><path d="M410.57169,405.7023c-1.1922,2.0636-3.5059,3.2191-5.8891,3.2191h-29.1052c-11.9903,0-20.2257-12.2353-4.5785-19.6471,14.1802-6.717,45.7204,5.7875,39.5728,16.428Z" style="fill: rgb(0, 255, 136); transform-origin: 386.876px 398.151px;" id="elz4hj18cvh7l" class="animable"></path><g id="eltllso0dhpfi"><path d="M410.57169,405.7023c-1.1922,2.0636-3.5059,3.2191-5.8891,3.2191h-29.1052c-11.9903,0-20.2257-12.2353-4.5785-19.6471,14.1802-6.717,45.7204,5.7875,39.5728,16.428Z" style="fill: rgb(255, 255, 255); opacity: 0.2; transform-origin: 386.876px 398.151px;" class="animable"></path></g></g><g id="elvhs72nx5mrr"><path d="M401.37089,395.3601c-.3905,.9298-2.4928,.9642-4.6957,.077-2.203-.8873-3.6724-2.3603-3.2819-3.2901,.3904-.9297,2.49271-.9642,4.6958-.0769,2.20291,.8874,3.6723,2.3603,3.2818,3.29Z" style="fill: rgb(255, 255, 255); opacity: 0.4; transform-origin: 397.382px 393.754px;" class="animable"></path></g><g id="el5p9i2hhlozg"><path d="M405.28759,399.7471c-.2349,.4975-1.1794,.5885-2.10959,.2033-.93031-.3852-1.49391-1.1008-1.25911-1.5983s1.1792-.5884,2.1095-.2033c.9303,.3852,1.494,1.1008,1.2592,1.5983Z" style="fill: rgb(255, 255, 255); opacity: 0.4; transform-origin: 403.603px 399.05px;" class="animable"></path></g><g id="elkep5t63in3d"><path d="M399.353,398.9329c-.17071,.3753-.75861,.4906-1.31281,.2577-.5544-.233-.8654-.7262-.6946-1.1014,.1707-.3753,.7586-.4907,1.313-.2577,.5542,.2329,.8653,.7261,.69441,1.1014Z" style="fill: rgb(255, 255, 255); opacity: 0.4; transform-origin: 398.349px 398.511px;" class="animable"></path></g></g></g><g id="freepik--Plants--inject-1" class="animable animator-hidden" style="transform-origin: 251.13px 363.669px;"><path d="M93.691,391.0822c7.3796-5.2927,14.8604-10.6816,20.5829-17.8982,5.7228-7.217,9.5587-16.6293,8.3563-25.9537-16.8373,7.4604-30.5596,22.3651-37.1213,40.3201-.3192-22.1892-4.4253-44.3169-12.0633-65.0091-6.0534,9.8547-8.3691,21.9985-7.3672,33.6965,1.0019,11.6979,5.1892,22.9532,11.1775,32.8685-11.1586-11.3313-24.1451-20.6608-38.2321-27.4661,9.6818,20.1986,24.4174,35.0568,44.4759,43.1566l3.8625-.0487c16.9051,.1974,30.5392-7.7192,40.4041-15.1405,4.1549-3.1255,9.3158-7.9725,8.5392-9.5565-14.5184,2.1085-28.8255,5.8121-42.6145,11.0311Z" style="fill: rgb(38, 50, 56); transform-origin: 87.7038px 363.669px;" id="elh7oeycmz4o6" class="animable"></path><path d="M417.03809,390.7884c-4.67609-5.2351-9.4124-10.5599-12.5146-16.9675-3.1023-6.4079-4.4116-14.1543-1.9347-20.9862,11.4461,8.4627,19.289,22.0169,21.2165,36.6667,3.9763-16.6858,10.799-32.6876,20.04471-47.012,2.90759,8.4535,2.61019,18.0046-.115,26.6609-2.72511,8.6562-7.77881,16.4423-13.96561,22.9143,10.3257-6.6698,21.6933-11.5217,33.4661-14.2841-10.7043,13.6079-24.3222,22.3362-40.8179,25.0699l-2.90559-.687c-12.78651-2.697-21.73941-10.9646-27.932-18.2239-2.60831-3.0574-5.68581-7.5828-4.83321-8.647,10.5977,4.0348,20.7675,9.2373,30.2913,15.4959Z" style="fill: rgb(38, 50, 56); transform-origin: 424.919px 372.67px;" id="ely63op1me5e" class="animable"></path></g><g id="freepik--Stingray--inject-1" class="animable" style="transform-origin: 108.564px 235.72px;"><g id="freepik--freepik--Stingray--inject-2--inject-1" class="animable" style="transform-origin: 108.564px 235.72px;"><path d="M101.4243,227.8803c.3579-.0553-18.1921,6.1608-52.0827,5.7082,0,0,19.5961,6.0287,51.9361-2.9718l.1466-2.7364Z" style="fill: rgb(38, 50, 56); transform-origin: 75.3855px 231.722px;" id="el3wjqrbclfra" class="animable"></path><g id="el11gmjmnraqod"><path d="M101.4243,227.8803c.3579-.0553-18.1921,6.1608-52.0827,5.7082,0,0,19.5961,6.0287,51.9361-2.9718l.1466-2.7364Z" style="fill: rgb(255, 255, 255); opacity: 0.2; transform-origin: 75.3855px 231.722px;" class="animable"></path></g><path d="M122.3778,299.6019s10.7143-.4258,20.2265-15.2382,10.0544-19.7835,10.981-26.364c1.1678-7.4125,4.8651-14.1923,10.464-19.1883,5.4717-4.3954,13.0515-11.2374,13.7209-18.2446s1.8149-19.771-3.649-18.7536-4.4871,21.4727-8.6529,23.4669c-4.1658,1.9943-9.4889-4.7175-12.0631-11.2243-2.5741-6.5069-4.3731-18.2062,.1894-21.9225,4.5624-3.7164,15.7984,10.7396,20.4232,6.9732,4.6248-3.7665-10.8929-12.7292-18.5979-14.31-7.7051-1.5807-14.3572,2.3253-20.9621,.7507-6.6048-1.5746-11.4473-2.4255-15.0578-3.0851-3.6106-.6596-21.4609-12.0786-40.9791-10.4682-19.5183,1.6105-40.974,16.9803-39.579,18.4612s31.5752-11.0391,44.8171,5.0403c8.0219,9.957,13.1938,21.9029,14.9648,34.5661,0,0,25.4767,22.596,29.6015,38.5542,5.3261,20.6069-5.8475,30.9862-5.8475,30.9862Z" style="fill: rgb(38, 50, 56); transform-origin: 108.564px 235.72px;" id="elvrrn9xo82ea" class="animable"></path><g id="eln1xaku97vx"><path d="M122.3778,299.6019s10.7143-.4258,20.2265-15.2382,10.0544-19.7835,10.981-26.364c1.1678-7.4125,4.8651-14.1923,10.464-19.1883,5.4717-4.3954,13.0515-11.2374,13.7209-18.2446s1.8149-19.771-3.649-18.7536-4.4871,21.4727-8.6529,23.4669c-4.1658,1.9943-9.4889-4.7175-12.0631-11.2243-2.5741-6.5069-4.3731-18.2062,.1894-21.9225,4.5624-3.7164,15.7984,10.7396,20.4232,6.9732,4.6248-3.7665-10.8929-12.7292-18.5979-14.31-7.7051-1.5807-14.3572,2.3253-20.9621,.7507-6.6048-1.5746-11.4473-2.4255-15.0578-3.0851-3.6106-.6596-21.4609-12.0786-40.9791-10.4682-19.5183,1.6105-40.974,16.9803-39.579,18.4612s31.5752-11.0391,44.8171,5.0403c8.0219,9.957,13.1938,21.9029,14.9648,34.5661,0,0,25.4767,22.596,29.6015,38.5542,5.3261,20.6069-5.8475,30.9862-5.8475,30.9862Z" style="fill: rgb(255, 255, 255); opacity: 0.2; transform-origin: 108.564px 235.72px;" class="animable"></path></g><g id="elynzsyxaz48l"><path d="M122.3778,299.6019c2.8935-.3358,5.6713-1.3317,8.1191-2.9108,4.9856-5.6823,13.1172-15.8428,3.9951-12.2632,0,0,.1478-10.4049-5.2941,.5045-.7041,5.4768-3.0866,10.6011-6.8201,14.6695Z" style="fill: rgb(255, 255, 255); opacity: 0.2; transform-origin: 130.499px 289.776px;" class="animable"></path></g><g id="ell9zt87h2jci"><path d="M38.8607,190.4572c.9188,.9733,14.364-4.1278,27.1984-3.1076,1.499-.6907,2.6995-1.6037,2.3325-2.7637-.8766-2.753-12.5629,.3191-12.8634-.9285-.3005-1.2477,11.5881-3.2157,11.0386-7.0531-.131-.8875-1.3735-1.1559-3.2238-1.073-13.9578,5.1023-25.5202,13.8256-24.4823,14.9259Z" style="fill: rgb(255, 255, 255); opacity: 0.2; transform-origin: 53.627px 183.049px;" class="animable"></path></g><g id="elv7v24nd2kpp"><path d="M162.7014,240.031c-4.3721-1.8834-7.882-5.3332-9.8406-9.6722-2.334-5.2278-5.8924-5.8437-10.9893-3.6663-5.0968,2.1775-19.8085,1.313-18.7921,5.2203,1.0165,3.9072,30.8716,6.898,32.2328,9.2104,1.3612,2.3125-7.1099,3.2297-6.2067,4.6949,.6126,.9969,5.3705,1.2312,8.3463,1.271,1.3913-2.5993,3.1604-4.9779,5.2496-7.0581Z" style="fill: rgb(255, 255, 255); opacity: 0.2; transform-origin: 142.865px 236.3px;" class="animable"></path></g><g id="el8oir43d0z15"><path d="M117.3534,191.6539c-.0358,1.8943,3.9676,1.0402,8.3289,.9085,4.3612-.1318,.9039,9.115-1.2137,13.0411-2.1177,3.926-7.4692,16.269-6.4937,18.4634,.9755,2.1945,4.206-.6232,6.9151-2.6624,4.0518-2.7269,8.3928-4.9972,12.9438-6.7694,4.8848-1.9728-.4723-17.2491-2.7173-22.771-.9263-1.9687-.7751-4.2755,.4003-6.1064-.3502-.051-.6974-.1205-1.0402-.2084-3.3295-.7998-6.2252-1.4003-8.7331-1.9017-3.1916,2.4611-8.3762,6.6601-8.3901,8.0063Z" style="fill: rgb(255, 255, 255); opacity: 0.2; transform-origin: 128.589px 204.256px;" class="animable"></path></g><g id="el689l6bxoy7t"><path d="M165.5058,225.2842c-1.0367,.4732-2.2274,.4749-3.2654,.0045,2.2214,1.0396,7.6267,2.9959,10.5342-.863,3.7265-4.9275,3.1588-14.6892,1.2969-15.196-1.8619-.5067-2.963,13.5906-7.5029,15.0126-.2427,.4453-.6127,.8082-1.0628,1.0419Z" style="fill: rgb(255, 255, 255); opacity: 0.2; transform-origin: 168.884px 217.966px;" class="animable"></path></g><g id="elgdx5l078oao"><polygon points="161.2496 224.801 161.2496 224.801 161.2684 224.803 161.2496 224.801" style="fill: rgb(255, 255, 255); opacity: 0.2; transform-origin: 161.259px 224.802px;" class="animable"></polygon></g><g id="el7kkg3sv1f3v"><path d="M162.1507,225.2409c-.1433-.0547-.2821-.1206-.4151-.1971,.1343,.0741,.2729,.1399,.4151,.1971Z" style="fill: rgb(255, 255, 255); opacity: 0.2; transform-origin: 161.943px 225.142px;" class="animable"></path></g><g id="elzno6xdrr3b"><path d="M151.5752,195.1589h0c.3668-1.1568,1.0514-2.1871,1.9757-2.9734,1.968-1.6836,5.1809,.1854,8.58,2.4354,.9821,.1895,1.9858,.2414,2.9823,.1545,.694-.077,1.1941-.7021,1.1171-1.396-.0431-.3884-.2634-.735-.5967-.939-13.1776-7.9671-14.0584,2.7185-14.0584,2.7185Z" style="fill: rgb(255, 255, 255); opacity: 0.2; transform-origin: 158.907px 192.324px;" class="animable"></path></g><g id="elh0zejxsgdzp"><g style="opacity: 0.2; transform-origin: 161.7px 225.021px;" class="animable"><polygon points="161.2496 224.801 161.2496 224.801 161.2684 224.803 161.2496 224.801" style="fill: rgb(255, 255, 255); transform-origin: 161.259px 224.802px;" id="elas58x4fkcsh" class="animable"></polygon><path d="M162.1507,225.2409c-.1433-.0547-.2821-.1206-.4151-.1971,.1343,.0741,.2729,.1399,.4151,.1971Z" style="fill: rgb(255, 255, 255); transform-origin: 161.943px 225.142px;" id="el0eptyfdhdkx" class="animable"></path></g></g><path d="M149.7981,186.0435c.09-.8254-.1928-1.5395-.716-1.6156s-1.0597,.4919-1.1872,1.3132c-.1276,.8212,.176,1.5187,.718,1.5968,.5419,.0781,1.0597-.4918,1.1852-1.2944Z" style="fill: rgb(38, 50, 56); transform-origin: 148.84px 185.883px;" id="elu98up96wt6" class="animable"></path><path d="M151.0815,188.0248c.2293,.0022,.4133,.1899,.4111,.4192-.0014,.1398-.0731,.2696-.1907,.3451-1.0991,1.0939-2.6594,1.5886-4.188,1.3275-.2462-.0441-.4099-.2796-.3657-.5258,.0027-.015,.0061-.0298,.0103-.0444,.0581-.2591,.3118-.4249,.5723-.3742h0c1.2128,.1993,2.4466-.2043,3.307-1.0819,.126-.0987,.2947-.1236,.4437-.0655Z" style="fill: rgb(38, 50, 56); transform-origin: 149.117px 189.089px;" id="elvrj1ki3jt6b" class="animable"></path><g id="el8a4z7fvoe2"><g style="opacity: 0.7; transform-origin: 149.117px 187.303px;" class="animable"><path d="M149.7981,186.0435c.09-.8254-.1928-1.5395-.716-1.6156s-1.0597,.4919-1.1872,1.3132c-.1276,.8212,.176,1.5187,.718,1.5968,.5419,.0781,1.0597-.4918,1.1852-1.2944Z" id="elyvbs6kr09dk" class="animable" style="transform-origin: 148.84px 185.883px;"></path><path d="M151.0815,188.0248c.2293,.0022,.4133,.1899,.4111,.4192-.0014,.1398-.0731,.2696-.1907,.3451-1.0991,1.0939-2.6594,1.5886-4.188,1.3275-.2462-.0441-.4099-.2796-.3657-.5258,.0027-.015,.0061-.0298,.0103-.0444,.0581-.2591,.3118-.4249,.5723-.3742h0c1.2128,.1993,2.4466-.2043,3.307-1.0819,.126-.0987,.2947-.1236,.4437-.0655Z" id="ell5s2zj5asbi" class="animable" style="transform-origin: 149.117px 189.089px;"></path></g></g></g></g><g id="freepik--Character--inject-1" class="animable" style="transform-origin: 264.519px 241.492px;"><g id="elrlgnp9z3k6" class="animable" style="transform-origin: 264.519px 241.492px;"><g id="elai1v88alb59" class="animable" style="transform-origin: 224.243px 148.287px;"><path d="M264.75,133.4387s-3.50261-11.4989-12.62991-6.4662c-4.9759,2.7436-22.5902,29.5113-23.08,30.1187l-26.5239-14.5874-4.41219,7.2203s24.92129,23.2127,34.30679,21.0034c9.3855-2.2092,25.3873-24.9742,28.64-29.4126,2.5307-3.4531,3.3767-6.4085,3.6276-7.5504,.07161-.3258,.0947-.504,.0947-.504" style="fill: rgb(38, 50, 56); transform-origin: 231.439px 148.287px;" id="elyrvh71e7i6" class="animable"></path><g id="elmhryasmnw8" class="animable" style="transform-origin: 195.561px 139.187px;"><path d="M206.18859,145.9652s1.8666-3.3137,.9853-6.3326c-.8812-3.0188-.7816-5.664-1.5918-7.8629-.8102-2.1991-1.9228,.7619-2.19609,2.4569-.27311,1.6949-.59991,3.6134-1.83971,3.2022-1.2399-.4108-8.7326-8.7823-10.5165-9.1564-1.7839-.3744-.9953,1.3587-.9953,1.3587,0,0-1.8746-1.9841-2.863-1.4556-.2565,.1372-.631,.8727,.0815,1.9108,1.603,2.3354,5.2195,7.0635,5.2195,7.0635-.202-.2756-5.0827-5.7926-5.9214-6.5237-1.0966-.9551-2.1006-.8465-2.6337-.1927-.7587,.9304,5.0595,7.9771,5.097,8.4457,0,0-3.2138-4.1688-4.744-3.9282-1.5301,.2409,.3498,2.9755,2.4655,5.072,1.9395,1.9217,5.241,6.1996,7.4022,7.9619,2.6629,2.1716,4.9389,3.0316,7.8256,1.6002,2.8869-1.4318,4.2249-3.6198,4.2249-3.6198Z" style="fill: rgb(235, 179, 118); transform-origin: 195.561px 139.187px;" id="elnuh1ltbo11" class="animable"></path><g id="el3lzu1zp39c4"><path d="M190.2588,129.8732c1.4624,1.6278,2.8505,3.3225,4.1587,5.0766" style="fill: none; opacity: 0.3; stroke: rgb(0, 0, 0); stroke-linecap: round; stroke-linejoin: round; stroke-width: 0.25px; transform-origin: 192.338px 132.411px;" class="animable"></path></g><g id="elnzgsdguv2o"><path d="M190.1346,140.571c1.5331-2.3748,3.7795-4.2826,6.3712-5.4112" style="fill: none; opacity: 0.3; stroke: rgb(0, 0, 0); stroke-linecap: round; stroke-linejoin: round; stroke-width: 0.25px; transform-origin: 193.32px 137.865px;" class="animable"></path></g><g id="el68yc5902knb"><path d="M201.18339,138.8387c-.7332,.8885-1.1446,2.0368-1.1423,3.1887,.0024,1.1518,.4185,2.2986,1.1555,3.1839" style="fill: none; opacity: 0.3; stroke: rgb(0, 0, 0); stroke-linecap: round; stroke-linejoin: round; stroke-width: 0.25px; transform-origin: 200.619px 142.025px;" class="animable"></path></g></g></g><g id="el7ulqff3ww0x" class="animable" style="transform-origin: 303.885px 100.151px;"><path d="M290.31179,81.5214c-3.1071-4.5945-8.9821-6.6352-14.5284-6.6856-4.4346-.0403-8.9436,1.0427-12.6242,3.5169-3.6806,2.4741-6.4574,6.4114-7.0911,10.8008s1.0594,9.1496,4.6064,11.8119l18.2903,7.0136c2.40421-.4702,4.8307-.9473,7.0748-1.9293,2.244-.9821,4.3222-2.5251,5.4973-4.6745,1.0963-2.0055,1.32611-4.36,1.429-6.6433,.2059-4.567-.093-9.4236-2.6541-13.2105Z" style="fill: rgb(38, 50, 56); transform-origin: 274.478px 91.4069px;" id="el18260oioj3" class="animable"></path><g id="el8abcnrrjd1k" class="animable" style="transform-origin: 272.59px 105.601px;"><path d="M284.86129,125.7962s-4.0465,1.8096-9.5674,5.4284c-1.1501,.7539-2.3888,1.3739-3.6772,1.8546-3.4762,1.2973-6.5678,1.8942-7.1632,.2222-.133-.3679-.221-.759-.2711-1.1636-.3352-2.7125,.4302-6.3631,2.7727-7.771,2.6414-1.5877,4.0086-3.0636,3.917-5.696-.0337-1.4902-.3634-3.067-.78809-4.6126l2.17079-1.9513,11.1474-8.6324c-1.12,6.5978-3.2486,18.0397,1.4591,22.3217Z" style="fill: rgb(235, 179, 118); transform-origin: 274.484px 118.899px;" id="el3q73sigr0zj" class="animable"></path><g id="ely3432jncian"><path d="M270.87749,119.2469c2.9176-1.2496,6.2537-3.6442,6.3174-6.8745,.018-1.361-.1034-2.6692-.3174-3.5257l-6.4551,6.552c.2965,1.2323,.3591,2.0294,.4551,3.8482Z" style="opacity: 0.2; transform-origin: 273.81px 114.047px;" class="animable"></path></g><path d="M287.59149,93.1895c-2.25849,9.9868-3.0021,14.25-8.9173,18.8628-8.8974,6.9387-20.6155,2.6655-21.3728-7.6284-.6817-9.265,3.1263-24.0398,13.6103-26.9803,10.329-2.8966,18.93831,5.7592,16.6798,15.7459Z" style="fill: rgb(235, 179, 118); transform-origin: 272.59px 96.1615px;" id="elxl4gtdc1t4" class="animable"></path><path d="M274.58019,94.717c-.1774,.9396-.8616,1.6413-1.52819,1.5675-.66661-.0736-1.06321-.8948-.88581-1.834,.1772-.9394,.8614-1.6413,1.5279-1.5677s1.0632,.895,.8861,1.8342Z" style="fill: rgb(38, 50, 56); transform-origin: 273.373px 94.5837px;" id="elgxb8bse4iot" class="animable"></path><path d="M264.12309,93.1931c-.1739,.9098-.8539,1.5881-1.5183,1.5149-.6645-.0735-1.0625-.8706-.8885-1.7807,.174-.9098,.8538-1.5883,1.5183-1.515,.6647,.0733,1.06241,.8706,.8885,1.7808Z" style="fill: rgb(38, 50, 56); transform-origin: 262.92px 93.0601px;" id="elnwb7zp7i5a" class="animable"></path><path d="M276.665,91.3072c-.13081-.0025-.25651-.0574-.34421-.1627-1.3673-1.6472-3.1874-1.3722-3.2086-1.3688-.2697,.0414-.5135-.1404-.5379-.4134-.024-.2726,.17771-.529,.4514-.5741,.0952-.015,2.38-.3627,4.0764,1.6824,.16891,.2037,.1311,.5202-.084,.7065-.1044,.0894-.2309,.1325-.35309,.1301Z" style="fill: rgb(38, 50, 56); transform-origin: 274.89px 90.0321px;" id="el37m3cnrtm8u" class="animable"></path><path d="M261.41359,88.7847c-.1234,.0135-.24859-.0185-.3474-.1-.2045-.1685-.2218-.4825-.0397-.7011,1.8287-2.1931,4.098-2.0423,4.1949-2.0339,.271,.0215,.4572,.2613,.41561,.5368-.041,.2747-.29381,.4801-.56421,.4602-.08879-.0071-1.8519-.0984-3.3055,1.6458-.0942,.1128-.2232,.1784-.3537,.1922Z" style="fill: rgb(38, 50, 56); transform-origin: 263.272px 87.3662px;" id="el752yama1oaj" class="animable"></path><path d="M266.87629,93.2748s-2.0802,3.5753-4.17529,5.699c-.366,.3713-.25241,.9984,.209,1.2408,1.18769,.624,2.70339,.4009,2.70339,.4009l1.2629-7.3407Z" style="fill: rgb(213, 135, 69); transform-origin: 264.68px 96.9645px;" id="elgbe4o5ft44l" class="animable"></path><path d="M273.9,92.8866l-2.248-.8538s1.04069,1.8974,2.248,.8538Z" style="fill: rgb(38, 50, 56); transform-origin: 272.776px 92.6164px;" id="elw4t1gpbheo9" class="animable"></path><path d="M263.47009,91.4676l-2.2476-.8539s1.0406,1.8973,2.2476,.8539Z" style="fill: rgb(38, 50, 56); transform-origin: 262.346px 91.1973px;" id="elr389zf4aofm" class="animable"></path></g><path d="M258.82139,87.8698c9.6833,.188,20.3183-7.7093,22.55161-7.105-2.27341,.7852-1.93,4.6933-1.42831,5.9516,3.319,8.1034-.1062,12.7426,5.24531,14.4733,10.50969,3.3884,5.85459-17.5653-.65871-21.154-.5117-.2822,0,0-.55229-.1912,1.06689-9.9931-17.62041-4.5639-22.00991-.8388" style="fill: rgb(38, 50, 56); transform-origin: 275.108px 87.8522px;" id="elfirzfsl71ut" class="animable"></path><path d="M289.564,101.8314c-1.46721,1.9158-3.57911,2.9617-5.41691,3.1736-2.7642,.3182-3.5788-4.166-2.3122-6.7263,1.1405-2.3048,3.9803-3.5556,6.51511-2.6862,2.497,.8567,2.89169,4.0483,1.214,6.2389Z" style="fill: rgb(235, 179, 118); transform-origin: 285.917px 100.168px;" id="elt3xjv7t9t6" class="animable"></path><g id="el9eev1llfx1l"><path d="M283.59689,100.7426c.2099-.9428,.7737-1.8025,1.5548-2.3706s1.7726-.8399,2.73431-.749" style="fill: none; opacity: 0.2; stroke: rgb(0, 0, 0); stroke-linecap: round; stroke-linejoin: round; stroke-width: 0.5px; transform-origin: 285.741px 99.1742px;" class="animable"></path></g><path d="M288.03309,93.5416c-.5932-.5317-1.2166-.891-1.8583-1.234-.645-.3166-1.3093-.5747-1.9936-.7545-.6816-.1983-1.3895-.2823-2.1099-.3172-.3641,.0065-.7267-.0056-1.1001,.0495-.1856,.0218-.37019,.0372-.5601,.0811-.0942,.0329-.1884,.0051-.2827,.0879-.0467,.0629-.093,.166-.1369,.3758-.0448,.1272-.0853,.4808-.1233,.7989-.0498,.4174-.042,.8178,.015,1.1846l.01,.0591c.0475,.3001,.0927,.6353,.1337,.7446,.0418,.1919,.081,.2765,.12,.3215,.0773,.047,.15411-.0168,.23111-.0203,.153-.0413,.31049-.0577,.46719-.08,.3117-.052,.62981-.0829,.9473-.1119,.6383-.0496,1.2821-.0615,1.9356-.071,.65091,.0103,1.30991,.0214,1.9724,.0524,.6653,.0081,1.33751,.0618,2.0131,.0514l.0183,.0001c.2303-.0037,.4413-.2961,.47111-.6534,.02019-.245-.04991-.4568-.16991-.5646Z" style="fill: rgb(38, 50, 56); transform-origin: 284.021px 93.096px;" id="elywn35q3lcv" class="animable"></path><g id="elmlnjd0hr98"><path d="M276.99109,87.7768c1.4022,.5177,2.3803,1.7821,2.5618,3.2658,.7289,5.9589-1.9062,7.7167-6.1406,7.513-4.6732-.2247-5.881-2.8587-8.7481-3.4435-2.867-.5847-6.2144,3.3038-7.6307,1.542-1.4891-1.8521-1.25-7.9836,1.3708-9.9175,2.18-1.6084,13.4649-.8504,18.5868,1.0402Z" style="fill: rgb(0, 255, 136); opacity: 0.5; transform-origin: 267.896px 92.2158px;" class="animable"></path></g><path d="M256.53859,97.052c-.8877-1.1041-1.261-3.3609-.9512-5.7495,.2985-2.3024,1.1879-4.1529,2.4399-5.0768,2.4424-1.8021,13.9975-.9592,19.18371,.9555h0c1.621,.5984,2.75989,2.0485,2.97229,3.7843,.37071,3.0312-.0707,5.1736-1.3494,6.55-1.1585,1.2474-2.9422,1.7951-5.45189,1.6744-2.96451-.1427-4.61631-1.2004-6.07391-2.1338-.9303-.5958-1.7327-1.11-2.771-1.3218-1.14609-.2338-2.52309,.4502-3.7378,1.0538-1.1538,.5731-2.3361,1.1606-3.3045,.9085-.3505-.0914-.6732-.2927-.9562-.6446Zm11.4543-1.0654c1.3889,.8893,2.8245,1.8085,5.4498,1.9349,2.1134,.1016,3.5724-.314,4.461-1.2703,.9942-1.0703,1.3368-2.9313,1.0189-5.5315-.1542-1.2616-.9787-2.3142-2.1514-2.7471h0c-4.9821-1.8394-16.0807-2.5337-17.9899-1.125-.97529,.7195-1.6802,2.257-1.9345,4.2182-.2551,1.9672,.0315,3.9819,.6816,4.7905,.3962,.4927,1.2865,.0995,2.7058-.6056,1.398-.6945,2.9829-1.4818,4.557-1.1607,.1102,.0225,.21781,.0476,.3235,.0751,1.1086,.2885,1.9706,.8403,2.8782,1.4215Z" style="fill: rgb(38, 50, 56); transform-origin: 267.895px 92.2185px;" id="el40dpwd7okp2" class="animable"></path><path d="M286.84649,93.8545c1.9304,0,1.9336-3,0-3-1.9303,0-1.93349,3,0,3h0Z" style="fill: rgb(38, 50, 56); transform-origin: 286.847px 92.3545px;" id="elq2wx8pv29ri" class="animable"></path><path d="M350.76679,78.7126c-1.1092-1.935-2.6105-3.6098-3.983-5.368-.9225-1.1816-1.8284-2.5191-1.8152-4.0181,.0131-1.499,1.4038-3.0483,2.8495-2.6514-2.4533-1.2062-5.46209-.731-7.8802,.5444-2.41789,1.2754-4.3738,3.2569-6.3171,5.1798-1.9431,1.9229-3.9664,3.8538-6.4544,4.9868-3.2297,1.4708-6.9508,1.455-10.4533,.8834-3.5024-.5715-6.902-1.6649-10.39809-2.2737-3.49621-.6088-7.20561-.7055-10.48071,.6612-3.2749,1.3667-6.004,4.4598-6.1077,8.0071l.3453,9.6701c3.0083-1.2406,6.524-.107,9.1788,1.7745,2.6549,1.8816,4.7437,4.447,7.2302,6.5458,5.2285,4.4131,12.2595,6.6229,19.0723,5.9942,6.8131-.6286,13.3207-4.0876,17.6536-9.3829-3.3007,.8536-6.8614,.6713-10.0575-.5151,5.9525-.9346,11.5773-3.8482,15.7748-8.1712,1.4988-1.5435,2.8607-3.3502,3.24991-5.4662,.40349-2.1938-.29781-4.4655-1.40721-6.4007Z" style="fill: rgb(38, 50, 56); transform-origin: 321.008px 87.3662px;" id="ele5pmt7vnkob" class="animable"></path><path d="M290.31179,81.5214s3.3187,4.1509,2.707,12.2966l1.19321,.1177s1.78189-7.9667-3.18791-13.2974l-.7123,.8831Z" style="fill: rgb(0, 255, 136); transform-origin: 292.417px 87.287px;" id="elhwu1asbmhfa" class="animable"></path></g><g id="eld9izjaq3hm" class="animable" style="transform-origin: 306.427px 151.42px;"><path d="M290.25529,113.9999l3.9908-1.4826c3.1608-1.1742,6.7076,.4512,7.88191,3.6121l-15.48481,5.7524c-1.1743-3.161,.4512-6.7078,3.6121-7.8819Z" style="fill: rgb(38, 50, 56); transform-origin: 294.195px 117.009px;" id="eltcze8230emq" class="animable"></path><g id="el5a2zdslbmwi" class="animable" style="transform-origin: 306.427px 151.42px;"><g id="elofll06nsyy"><path d="M297.09423,114.91083h18.66528c3.96422,0,7.18267,3.21845,7.18267,7.18267v53.83502c0,6.62297-5.37701,11.99998-11.99998,11.99998h-9.0306c-6.62301,0-12.00006-5.37705-12.00006-12.00006v-53.83492c0-3.96423,3.21845-7.18268,7.18268-7.18268Z" style="fill: rgb(0, 255, 136); transform-origin: 306.427px 151.42px; transform: rotate(159.621deg);" class="animable"></path></g><g id="elwu7xd01uzv"><path d="M297.09423,114.91083h18.66528c3.96422,0,7.18267,3.21845,7.18267,7.18267v53.83502c0,6.62297-5.37701,11.99998-11.99998,11.99998h-9.0306c-6.62301,0-12.00006-5.37705-12.00006-12.00006v-53.83492c0-3.96423,3.21845-7.18268,7.18268-7.18268Z" style="fill: rgb(255, 255, 255); opacity: 0.6; transform-origin: 306.427px 151.42px; transform: rotate(159.621deg);" class="animable"></path></g></g><g id="eljw7v2ny0bz"><path d="M290.94539,157.1707c10.8605-2.186,21.3092-6.0675,30.9629-11.5022-1.3721-3.6935-2.74429-7.3875-4.1166-11.0815-9.6534,5.4352-20.1022,9.3167-30.9629,11.5022,1.3721,3.6936,2.7443,7.3875,4.1166,11.0815Z" style="fill: rgb(0, 255, 136); opacity: 0.5; transform-origin: 304.369px 145.879px;" class="animable"></path></g></g><g id="elq7sojqnpae"><polygon points="273.52129 306.6817 280.29189 292.7824 276.07979 289.2379 264.57209 304.0421 273.52129 306.6817" style="opacity: 0.2; transform-origin: 272.432px 297.96px;" class="animable"></polygon></g><g id="el7b7wyjwr02" class="animable" style="transform-origin: 246.203px 56.0324px;"><g id="el7tmr7uuk51o"><path d="M247.25389,83.5013c-.30689,1.2285,.44011,2.4733,1.6686,2.7802,1.22851,.307,2.4732-.44,2.7802-1.6685s-.4402-2.4733-1.66869-2.7802c-1.22841-.307-2.47311,.44-2.78011,1.6685Z" style="fill: rgb(0, 255, 136); opacity: 0.3; transform-origin: 249.478px 84.0571px;" class="animable"></path></g><g id="el65q3jebme68"><path d="M242.01849,27.4517c-.307,1.2285,.4401,2.4732,1.66851,2.7802,1.22849,.307,2.47329-.44,2.78029-1.6685,.3069-1.2285-.4401-2.4732-1.6686-2.7802s-2.4732,.4401-2.7802,1.6685Z" style="fill: rgb(0, 255, 136); opacity: 0.3; transform-origin: 244.243px 28.0076px;" class="animable"></path></g><g id="elcfdhzs8tfle"><path d="M246.96829,39.126c-.7387,2.9562,1.0589,5.9515,4.0152,6.6901,2.9562,.7387,5.9514-1.0589,6.6902-4.0152,.7386-2.9561-1.0591-5.9514-4.0152-6.6901-2.9563-.7387-5.9516,1.059-6.6902,4.0152Z" style="fill: rgb(0, 255, 136); opacity: 0.3; transform-origin: 252.321px 40.4635px;" class="animable"></path></g><g id="elpm2rkw4hvod"><path d="M239.74139,73.9594c-.1673,.6698,.24,1.3484,.9097,1.5157,.6698,.1674,1.3484-.2399,1.5157-.9096,.1674-.6698-.2399-1.3484-.9096-1.5158-.6698-.1674-1.3484,.24-1.5158,.9097Z" style="fill: rgb(0, 255, 136); opacity: 0.3; transform-origin: 240.954px 74.2624px;" class="animable"></path></g><g id="elpzuktpn19ag"><path d="M259.99789,56.6322c-.1674,.6698,.2399,1.3484,.9097,1.5157,.6697,.1674,1.34841-.2399,1.5157-.9096,.1673-.6698-.2399-1.3484-.9097-1.5158-.6697-.1673-1.3484,.24-1.5157,.9097Z" style="fill: rgb(0, 255, 136); opacity: 0.3; transform-origin: 261.211px 56.9352px;" class="animable"></path></g><g id="elnzv8v9v453"><path d="M245.509,63.0046c-.59941,2.3989,.85929,4.8296,3.25829,5.429,2.3989,.5995,4.8296-.8594,5.429-3.2582,.5994-2.399-.8594-4.8297-3.25829-5.4291-2.399-.5994-4.82961,.8594-5.429,3.2583Z" style="fill: rgb(0, 255, 136); opacity: 0.3; transform-origin: 249.853px 64.09px;" class="animable"></path></g><g id="el323ty9ixrwc"><path d="M230.17739,48.5712c-1.0331,4.1346,1.4812,8.3239,5.6158,9.3571,4.1347,1.0332,8.3241-1.4811,9.3571-5.6158,1.0332-4.1347-1.4811-8.3239-5.6157-9.3571-4.1347-1.0332-8.324,1.4811-9.3572,5.6158Z" style="fill: rgb(0, 255, 136); opacity: 0.3; transform-origin: 237.664px 50.4418px;" class="animable"></path></g></g><path d="M272.64679,107.6976c-1.4685-2.3587-5.65779-9.8398-8.505-10.0853-2.8472-.2453-5.9447,6.4345-6.4016,10.1215-.3765,3.0392-.88,7.27,7.6232,8.2727,8.5033,1.0028,9.6259-4.5465,7.2834-8.3089Z" style="fill: rgb(38, 50, 56); transform-origin: 265.643px 106.866px;" id="el2w5we5rjeaw" class="animable"></path><g id="elqkeejmxai" class="animable" style="transform-origin: 252.021px 289.576px;"><path d="M282.59989,302.3719l1.6643-2.0532c3.9613,1.7659,14.0107-6.5544,17.8992,3.4235,3.4324,8.8059,10.5991,39.8014,23.9058,62.1433,1.8345,3.0802,2.6199,8.9632-5.184,9.6506-10.19919,.8982-20.9209,7.6546-28.3723-3.5018-7.9726-11.937,5.0859-37.0514-10.1977-61.7674-1.5257-2.4672-1.4125-5.8011,.2847-7.895Z" style="fill: rgb(0, 255, 136); transform-origin: 304.269px 338.558px;" id="elic3cicdx5jm" class="animable"></path><path d="M280.77889,182.5388s-49.9182,47.2867-67.1437,79.446c-21.9681,26.2569,72.08481,47.8735,72.08481,47.8735,9.69109,17.0818,12.699,17.7689,7.27509-2.2289-.80809-2.979-2.4176-5.6766-4.67809-7.7785-8.603-7.999-31.77431-28.0129-49.86931-29.6429,51.2791-32.084,71.0931-62.5352,71.0931-62.5352l-28.7619-25.134Z" style="fill: rgb(38, 50, 56); transform-origin: 259.925px 252.597px;" id="eld044xmqh92v" class="animable"></path><g id="ellxqku5ffs4h"><path d="M272.68809,286.7654c-4.2769,4.8326-9.0546,9.918-14.4096,15.2521-7.2144-2.3977-14.9509-5.2752-22.0716-8.546-.1252-7.683,4.8642-14.5222,11.5627-21.0804,8.5186,3.0476,17.3916,8.7129,24.9185,14.3743Z" style="opacity: 0.2; transform-origin: 254.446px 287.204px;" class="animable"></path></g><g id="elt1lbdmti7la"><path d="M256.80289,257.8961c7.0723-5.1012,13.3528-10.0499,18.8822-14.729-2.986-.1278-.0454-12.4497-3.0702-10.5831-3.64889,2.2519-13.1948,19.2133-15.812,25.3121Z" style="opacity: 0.2; transform-origin: 266.244px 245.144px;" class="animable"></path></g><path d="M233.85219,390.242l2.4772,1.0135c.2121,4.5332,10.4185,13.3794,3.5827,20.4573-6.0326,6.2472-35.0322,22.6556-41.4417,42.343-1.0865,3.3372-5.318,4.3274-7.7222,1.7705-7.5951-8.0773-18.4036-22.4182-12.1086-33.4428,6.7354-11.7958,33.8658-6.7133,48.3434-29.9103,1.44529-2.3156,4.34289-3.2649,6.86919-2.2312Z" style="fill: rgb(0, 255, 136); transform-origin: 209.507px 423.548px;" id="elarehp41idgm" class="animable"></path><path d="M292.09139,185.2569s-27.6476,69.0635-41.1028,99.5629c-14.131,32.031-21.0725,107.678-21.9854,109.9898,0,0-16.8037,17.2215-7.6835,14.3563,5.7482-1.8058,10.2166-6.2786,12.7351-9.3393,1.35021-1.6409,2.4531-3.4558,3.3236-5.3943,4.9368-10.9939,25.9479-59.2258,30.26661-93.0943,27.40529-30.3967,40.32969-45.7622,48.75819-58.0878,2.7933-4.0849,4.4803-8.3352,5.4397-12.4129,2.448-10.4052,3.0258-29.9969-11.4148-42.6787l-4.6958-3.4722-13.6409,.5705Z" style="fill: rgb(38, 50, 56); transform-origin: 270.898px 297.087px;" id="eld5f6l6wq9rs" class="animable"></path><path d="M313.29029,190.9698s-28.9859,13.0567-40.6754,41.6142c-1.469,1.3214-10.9513-16.9597-10.1752-36.673,4.4976-7.6612,31.5107-13.7262,43.9872-14.248,2.62411,2.6977,5.5348,6.6471,6.8634,9.3068Z" style="fill: rgb(0, 255, 136); transform-origin: 287.842px 207.157px;" id="elzjaaydbknt" class="animable"></path><g id="eliqbharsmswe"><path d="M291.447,303.8543s7.05749,1.5664,12.12709,21.8317c5.0695,20.2654,4.4828,25.7448-.2413,26.6843-6.026,1.1985-10.34979-19.3015-10.34979-19.3015,0,0,2.60279,25.208,11.87609,21.8426,9.2734-3.3653-.0677-30.8257-3.0917-38.8553s-7.0536-14.3511-10.32039-12.2018Z" style="opacity: 0.3; transform-origin: 300.154px 329.325px;" class="animable"></path></g><g id="elw67g3uchos"><path d="M235.44829,396.7683s1.4734,7.0776-14.91629,20.0299c-16.38971,12.9522-21.62591,14.6699-24.4244,10.7497-3.5697-5.0005,13.3404-17.3695,13.3404-17.3695,0,0-21.9095,12.7355-15.0294,19.8055,6.88,7.0701,28.0726-12.7339,34.1492-18.7915s10.1827-12.3296,6.8805-14.4241Z" style="opacity: 0.3; transform-origin: 214.851px 414.129px;" class="animable"></path></g><path d="M253.56319,138.9208c-.9173,4.2145-6.47319,12.8436,1.3099,25.5104,3.8174,5.7781,5.5762,17.5138,7.5666,31.4798l43.9872-14.248c-7.92689-9.2657-9.0554-9.8197-2.7052-46.5702,1.1201-6.4829-3.6218-12.5071-10.1866-12.9387-1.7545-.1153-3.611-.1977-5.5099-.2232-7.3825-.0991-13.4293-.1246-19.8878,.6917-2.1405,.2707-4.3507,.6197-6.4603,.9908-7.6123,1.339-5.6219,3.8583-8.1139,15.3074Z" style="fill: rgb(0, 255, 136); transform-origin: 278.606px 158.896px;" id="elfr1phegufnd" class="animable"></path><g id="elnk0pm4kebo7"><path d="M290.177,134.587c.19139,5.5083,6.419,14.154,10.67639,18.2197,.4552-3.8777,1.2447-6.2903,1.9833-10.9072l-12.65969-7.3125Z" style="opacity: 0.2; transform-origin: 296.507px 143.697px;" class="animable"></path></g><path d="M258.902,175.1616c-.93351,.236,21.07389,3.8494,40.86829-5.9966,0,0,.0933,5.7687,2.2709,6.9266,0,0-12.6026,12.8037-41.466,7.5144l-1.67319-8.4444Z" style="fill: rgb(38, 50, 56); transform-origin: 280.457px 177.026px;" id="elld60kalkhia" class="animable"></path><g id="elcv5u3mpobph"><path d="M265.29229,156.5792s5.8621,6.9852,13.3139,7.8146c0,0-9.3396,.7301-13.3139-7.8146Z" style="opacity: 0.2; transform-origin: 271.949px 160.494px;" class="animable"></path></g></g><g id="el90faxisnj2v" class="animable" style="transform-origin: 314.956px 174.381px;"><g id="el5fiamm9s10g" class="animable" style="transform-origin: 330.402px 211.874px;"><path d="M329.03089,198.5351s-3.6724,1.4186-4.9555,4.4106c-1.2832,2.9917-3.1039,5.0394-3.904,7.3295-.8003,2.2902,2.03761,.657,3.3717-.5173,1.3338-1.1743,2.8578-2.4919,3.5776-1.3473,.7202,1.1444,1.1955,12.7645,2.3744,14.2376,1.1787,1.4734,1.6896-.4303,1.6896-.4303,0,0,.1916,2.8191,1.329,3.0475,.29531,.0592,1.0786-.2819,1.1928-1.5803,.2566-2.9209,.4797-9.0787,.4797-9.0787-.0201,.3531,.2475,7.9734,.4364,9.1096,.2473,1.4848,1.1209,2.0589,1.9772,1.8876,1.2186-.2439,1.2088-9.7034,1.4874-10.1025,0,0-.1766,5.446,1.2042,6.261,1.381,.8148,1.6792-2.6074,1.3689-5.675-.2845-2.8118-.1061-8.4027-.6727-11.2332-.698-3.4878-1.9502-5.6731-5.19859-6.4297-3.24881-.7564-5.75811,.1109-5.75811,.1109Z" style="fill: rgb(235, 179, 118); transform-origin: 330.402px 211.874px;" id="el6do6z6po8jv" class="animable"></path><g id="elor5gd95xki"><path d="M331.16489,221.8769c-.0968-2.2631-.0903-4.5307,.0192-6.7932" style="fill: none; opacity: 0.3; stroke: rgb(0, 0, 0); stroke-linecap: round; stroke-linejoin: round; stroke-width: 0.25px; transform-origin: 331.14px 218.48px;" class="animable"></path></g></g><path d="M296.71019,123.1478s-11.4238,3.7402-6.203,12.7612c2.8462,4.9179,29.9732,21.9737,30.5907,22.4508s7.0456,39.9283,7.0456,39.9283l9.6091,2.0863s-.6879-36.3296-3.0912-45.6673c-2.40339-9.3377-25.4952-24.8642-30-28.0242-3.5048-2.4585-6.4771-3.2431-7.624-3.4703-.3272-.0648-.5058-.0842-.5058-.0842" style="fill: rgb(38, 50, 56); transform-origin: 313.447px 161.751px;" id="elrofb68brl" class="animable"></path></g><path d="M272.87679,163.1054c4.8266,1.0439,10.34221,.3651,13.9813-2.9444,2.0098-1.8274,3.3527-4.6589,3.7818-7.9732,.7347-5.6726-.2034-12.0125-2.4487-16.5454-.7549-1.5246-1.7019-2.9555-2.6174-4.3392-.5659-.8551-1.1511-1.7394-1.6794-2.6299-2.04639-3.4486-2.6992-6.6036-1.9956-9.6451,.2775-1.2001,.8788-2.8446,2.167-3.8647,.8815-.6981,1.8468-.9538,2.8688-.7602,1.3163,.2494,2.6652,1.2942,3.495,2.7223,.1362,.2346,.4373,.3146,.6721,.178,.2349-.1364,.3147-.4374,.1781-.6722-.9834-1.6927-2.5306-2.884-4.1623-3.1944-1.2962-.2456-2.5629,.0847-3.6624,.9555-1.1962,.9473-2.0657,2.4736-2.5145,4.4141-.7633,3.3001-.074,6.6917,2.1079,10.3687,.5408,.9112,1.1328,1.8056,1.7051,2.6706,.8989,1.3585,1.8286,2.7634,2.55641,4.233,2.16349,4.3681,3.06559,10.4923,2.35459,15.9826-.3993,3.0832-1.6307,5.7013-3.468,7.3719-4.6373,4.2171-12.9139,3.759-17.9217,.9165-7.1557-4.0616-8.8105-12.3331-9.4325-18.2014-.6905-6.5146-.27039-13.3818,1.2488-20.4109,.7105-3.2873,1.6681-6.6207,2.84581-9.9075,.35569-.9925,.80359-1.9777,1.27789-3.0206,.8847-1.9452,1.7992-3.9566,2.0712-6.0267,.0355-.2691-.1549-.5162-.4232-.5516-.2694-.0354-.5165,.1542-.5517,.4235-.253,1.9246-1.1368,3.8681-1.9914,5.7477-.46179,1.0153-.9392,2.0651-1.3087,3.0959-1.1922,3.3273-2.1616,6.7023-2.8812,10.0315-1.5413,7.1316-1.967,14.1036-1.2656,20.7224,.645,6.084,2.3756,14.6679,9.9249,18.9529,1.4993,.851,3.2437,1.5016,5.0876,1.9003Z" style="fill: rgb(38, 50, 56); transform-origin: 274.442px 132.892px;" id="elqx21nnk89dm" class="animable"></path></g></g><g id="freepik--Turtles--inject-1" class="animable" style="transform-origin: 282.595px 178.96px;"><g id="freepik--freepik--sea-turtle--inject-2--inject-1" class="animable" style="transform-origin: 154.016px 84.8092px;"><path d="M177.8086,77.1572l6.2743-.4474s10.657-1.0802,11.4334,3.6229l-.417,2.5094-1.4942,.713c-1.4364,1.0758-3.2352,1.5502-5.0153,1.3227-3.2916-.2709-7.2804-1.2625-10.0911-.2688l-.6901-7.4518Z" style="fill: rgb(0, 255, 136); transform-origin: 186.662px 80.7682px;" id="elp125gnmijtp" class="animable"></path><g id="elnrionzr1jpe"><polygon points="189.9197 79.3864 190.7072 79.3482 191.5078 79.7052 190.8517 80.0666 190.0321 79.8231 189.9197 79.3864" style="isolation: isolate; opacity: 0.1; transform-origin: 190.714px 79.7074px;" class="animable"></polygon></g><path d="M191.5039,82.1397c.1661,.3345,.1192,.692-.1016,.7937-.2209,.1017-.5179-.0747-.6746-.4242-.1567-.3496-.1117-.6873,.1091-.789,.2209-.1017,.5085,.0896,.6671,.4195Z" style="fill: rgb(38, 50, 56); transform-origin: 191.119px 82.3274px;" id="el3nq8r5mmasv" class="animable"></path><path d="M191.9306,81.5608c.0246-.026,.0438-.0565,.0566-.0899,.0468-.1083,.0042-.2344-.0987-.2922-.6161-.3279-1.3523-.3393-1.9783-.0307-.1036,.0591-.1396,.1909-.0806,.2945,.0591,.1035,.1909,.1396,.2945,.0805h0c.4994-.2294,1.077-.2139,1.5634,.0418,.0731,.0525,.1719,.0509,.2431-.004Z" style="fill: rgb(38, 50, 56); transform-origin: 190.904px 81.2638px;" id="elmudvptlk29k" class="animable"></path><g id="el34zca8v0mj3"><polygon points="186.3181 77.5296 187.7701 77.8151 186.0908 78.9555 182.5575 79.202 184.6106 77.9829 186.3181 77.5296" style="isolation: isolate; opacity: 0.4; transform-origin: 185.164px 78.3658px;" class="animable"></polygon></g><path d="M173.46,74.9247s3.3593-2.5314,1.734-7.7474c-1.6253-5.216-3.8894-9.8819-6.2579-11.3713-2.3685-1.4893-7.9421-5.3497-8.8019-3.9658-.8597,1.3838,1.8965,3.87,1.8965,3.87,.3527,1.3847,1.2013,2.592,2.3849,3.3927,0,0,.1747,3.0487,1.4453,4.4544,1.2707,1.4056,3.0625,7.5212,2.555,9.4925l5.0441,1.8749Z" style="fill: rgb(0, 255, 136); transform-origin: 167.803px 63.2352px;" id="eldxe1nwzrwt" class="animable"></path><g id="elkqrjjqb4d6p"><polygon points="169.5401 69.3326 170.6069 65.3074 168.3018 65.364 168.4415 67.4704 169.5401 69.3326" style="isolation: isolate; opacity: 0.3; transform-origin: 169.454px 67.32px;" class="animable"></polygon></g><g id="elafefohg5yl"><polygon points="169.583 63.9419 167.9163 63.8979 166.7132 62.1687 168.4212 62.1968 169.583 63.9419" style="isolation: isolate; opacity: 0.3; transform-origin: 168.148px 63.0553px;" class="animable"></polygon></g><g id="elb9mf7ul0abc"><polygon points="171.4502 68.557 170.5789 70.4251 172.4704 70.6105 171.4502 68.557" style="isolation: isolate; opacity: 0.2; transform-origin: 171.525px 69.5837px;" class="animable"></polygon></g><g id="elkro6eeqnw9"><polygon points="166.59 57.0919 166.177 58.8299 164.9857 56.8989 166.59 57.0919" style="isolation: isolate; opacity: 0.2; transform-origin: 165.788px 57.8644px;" class="animable"></polygon></g><g id="el4tl8bfjk7o3"><path d="M173.46,74.9247l-5.0816-1.8984c.1226-.7174,.1163-1.4509-.0185-2.1662,2.2554,.4828,4.4682,1.1467,6.6168,1.9853-.3434,.7979-.8618,1.5086-1.5167,2.0793Z" style="isolation: isolate; opacity: 0.2; transform-origin: 171.668px 72.8924px;" class="animable"></path></g><path d="M176.7694,88.5733s7.8313,1.2846,9.1971,6.9964c1.3659,5.7118,.5668,11.0245-1.8341,14.8592-2.4009,3.8348-10.0228,9.3859-11.0217,7.1158-.999-2.2702,3.8082-6.7883,3.4393-8.4636-.3689-1.6753,1.2894-7.8387,1.4796-9.4552,.1903-1.6166,1.7058-7.7025-3.3934-5.9304l2.1332-5.1222Z" style="fill: rgb(0, 255, 136); transform-origin: 179.803px 103.323px;" id="el7qbfbvjy4qk" class="animable"></path><g id="el7cot4npf38f"><polygon points="181.5306 98.1667 179.1997 101.7736 179.143 98.1714 181.5306 98.1667" style="isolation: isolate; opacity: 0.4; transform-origin: 180.337px 99.9701px;" class="animable"></polygon></g><g id="elv24dkapuukr"><polygon points="181.2014 101.8504 178.3637 103.7685 178.6574 107.2267 182.0104 104.9215 181.2014 101.8504" style="isolation: isolate; opacity: 0.2; transform-origin: 180.187px 104.539px;" class="animable"></polygon></g><g id="elgejtqvuunl7"><polygon points="182.0385 106.3407 180.3891 107.8659 183.1009 108.0442 182.0385 106.3407" style="isolation: isolate; opacity: 0.2; transform-origin: 181.745px 107.192px;" class="animable"></polygon></g><g id="elfmhu666dl1"><polygon points="178.6392 109.7673 176.6141 111.391 178.8321 111.2901 178.6392 109.7673" style="isolation: isolate; opacity: 0.4; transform-origin: 177.723px 110.579px;" class="animable"></polygon></g><g id="el2mfmuecs366"><path d="M178.9489,89.1489c-.0957,1.7333-.4388,3.4441-1.019,5.0802-.5327-.8161-1.4825-1.1518-3.2937-.5336l2.1632-5.1034c.7292,.1328,1.4476,.3189,2.1495,.5568Z" style="isolation: isolate; opacity: 0.2; transform-origin: 176.793px 91.4106px;" class="animable"></path></g><path d="M139.795,97.3589s-4.8186,4.9188-6.873,8.6681c-2.0543,3.7494-7.0651,7.5433-10.0986,6.9118-3.0334-.6314-2.7231-5.2997-3.072-6.4081-.349-1.1084,2.6906-3.7467,2.2253-5.5349-.4653-1.7883,.3694-3.648,2.5206-4.6904,2.1511-1.0425,9.7049-4.3564,9.7049-4.3564l5.5928,5.4099Z" style="fill: rgb(0, 255, 136); transform-origin: 129.759px 102.479px;" id="elrn4v5tx54yh" class="animable"></path><g id="elaj8knytidao"><polygon points="132.3368 103.7974 130.0881 108.2717 126.3648 110.0513 130.7109 103.6221 132.3368 103.7974" style="isolation: isolate; opacity: 0.4; transform-origin: 129.351px 106.837px;" class="animable"></polygon></g><g id="elaaofl526htv"><polygon points="130.6363 101.3789 128.8246 104.9253 126.5875 103.1106 130.6363 101.3789" style="isolation: isolate; opacity: 0.2; transform-origin: 128.612px 103.152px;" class="animable"></polygon></g><g id="elsrzvwovaocn"><polygon points="132.8599 98.5413 132.9007 101.4536 131.6365 101.1188 132.8599 98.5413" style="isolation: isolate; opacity: 0.2; transform-origin: 132.269px 99.9974px;" class="animable"></polygon></g><g id="elqv4ab79xu1o"><polygon points="124.0694 110.6579 125.0424 107.3476 122.0675 109.6501 124.0694 110.6579" style="isolation: isolate; opacity: 0.2; transform-origin: 123.555px 109.003px;" class="animable"></polygon></g><g id="elx5inbgewt29"><path d="M137.9389,99.3294c-2.5057-1.7829-4.8127-3.8296-6.8814-6.1051,1.7308-.7733,3.1496-1.3663,3.1496-1.3663l5.5879,5.5009s-.7896,.79-1.8561,1.9705Z" style="isolation: isolate; opacity: 0.2; transform-origin: 135.426px 95.5937px;" class="animable"></path></g><path d="M131.2916,80.7267s-5.8687,.3678-10.5021,.7174c-4.6335,.3496-8.1718,.0387-8.2725,1.5128-.1007,1.4742,5.4936,2.2412,5.9302,3.8754s2.7142,1.372,10.9853-1.0201l1.8591-5.0855Z" style="fill: rgb(0, 255, 136); transform-origin: 121.904px 84.2986px;" id="elczvpbk8vblo" class="animable"></path><g id="el9xcwcklrcrv"><polygon points="125.0056 84.4195 122.3787 83.7403 122.0093 85.6417 125.0056 84.4195" style="isolation: isolate; opacity: 0.2; transform-origin: 123.507px 84.691px;" class="animable"></polygon></g><g id="elf1ie11y551r"><polygon points="120.9004 84.1286 119.2166 82.7979 117.7422 83.7952 119.083 84.607 120.9004 84.1286" style="isolation: isolate; opacity: 0.4; transform-origin: 119.321px 83.7024px;" class="animable"></polygon></g><g id="el25sujvdbjw5"><path d="M129.4092,85.7661c-.9872,.2892-1.887,.5392-2.7088,.765-.2258-.8218-.4803-1.7976-.5564-2.4417-.0762-.644,1.1078-2.2109,2.0219-3.2154l3.1267-.1989-1.8834,5.091Z" style="isolation: isolate; opacity: 0.2; transform-origin: 128.717px 83.6031px;" class="animable"></path></g><path d="M130.6647,85.4993s-8.6397,3.3109-8.2742,4.21c.3654,.8992,3.9051-.3056,4.8274,.4731s4.2762-1.4946,4.2762-1.4946l-.8294-3.1885Z" style="fill: rgb(0, 255, 136); transform-origin: 126.937px 87.9221px;" id="ely0d57dzsj4" class="animable"></path><g id="elppgomrtwamf"><path d="M131.4988,88.6803s-2.4391,1.6667-3.7353,1.6988c.2705-.7294-.2586-1.5014-.5128-1.9122l-.7408-1.2503c2.0757-.9225,4.1548-1.7173,4.1548-1.7173l.8341,3.181Z" style="isolation: isolate; opacity: 0.2; transform-origin: 129.004px 87.9392px;" class="animable"></path></g><path d="M177.9409,76.1317l1.2213,4.711s.2247,20.1177-19.3218,22.5109c-19.5465,2.3933-31.9054-16.3076-31.9054-16.3076l-.7003-2.6786c5.2998-7.1697,13.0676-12.1219,21.8041-13.9008,14.5332-2.8368,28.9021,5.6651,28.9021,5.6651Z" style="fill: rgb(0, 255, 136); transform-origin: 153.199px 86.7262px;" id="elnmwbgtffssi" class="animable"></path><g id="elk7su5sf9up"><path d="M177.9409,76.1317l1.2213,4.711s.2247,20.1177-19.3218,22.5109c-19.5465,2.3933-31.9054-16.3076-31.9054-16.3076l-.7003-2.6786c5.2998-7.1697,13.0676-12.1219,21.8041-13.9008,14.5332-2.8368,28.9021,5.6651,28.9021,5.6651Z" style="fill: rgb(255, 255, 255); isolation: isolate; opacity: 0.3; transform-origin: 153.199px 86.7262px;" class="animable"></path></g><g id="elcajtrz3iw8u"><path d="M173.7518,79.4173l3.8489,3.7589c-.8917,4.6701-2.9252,9.0469-5.9194,12.7402l-1.2932-14.4098,3.3637-2.0893Z" style="isolation: isolate; opacity: 0.3; transform-origin: 173.994px 87.6668px;" class="animable"></path></g><g id="elw36r7uef4ol"><path d="M168.1573,82.5094l1.0399,15.4114s-2.3047,2.6507-9.8286,2.5738l-.1583-17.2626,4.2903-2.5317,4.6567,1.8091Z" style="isolation: isolate; opacity: 0.2; transform-origin: 164.204px 90.5983px;" class="animable"></path></g><g id="elfzhz6c4zseg"><path d="M157.2953,83.7326l-.927,16.7265s-4.2764,.8461-9.5233-2.0035l2.6778-13.8057,2.9415-2.8151,4.831,1.8978Z" style="isolation: isolate; opacity: 0.4; transform-origin: 152.07px 91.2057px;" class="animable"></path></g><g id="el8evb1rxr52"><path d="M147.7864,85.3987l-3.364,11.1048s-4.646-1.5932-6.9097-5.0456l3.8646-7.8092,6.4091,1.75Z" style="isolation: isolate; opacity: 0.2; transform-origin: 142.65px 90.0761px;" class="animable"></path></g><g id="elfqicigcysm"><polygon points="139.7006 81.1092 140.1428 82.7678 135.9963 89.312 133.1269 87.7378 132.0856 83.7885 134.1345 80.6632 139.7006 81.1092" style="isolation: isolate; opacity: 0.3; transform-origin: 136.114px 84.9876px;" class="animable"></polygon></g><g id="elqxhqpwaedk"><polygon points="171.6251 78.059 168.5192 80.2373 164.4727 79.3872 163.5021 75.6915 166.6812 73.4965 170.6897 74.4901 171.6251 78.059" style="isolation: isolate; opacity: 0.4; transform-origin: 167.564px 76.8669px;" class="animable"></polygon></g><g id="elsxjco25ye7d"><polygon points="161.0396 75.6491 162.013 79.357 157.5264 82.2673 154.1087 80.4006 153.2226 77.0195 155.6382 75.0243 161.0396 75.6491" style="isolation: isolate; opacity: 0.1; transform-origin: 157.618px 78.6458px;" class="animable"></polygon></g><g id="elfn2d2kxj7e"><polygon points="150.7907 77.1114 151.7074 80.6268 148.3126 83.7634 142.6067 82.309 141.4865 80.0986 145.4359 75.9302 150.7907 77.1114" style="isolation: isolate; opacity: 0.4; transform-origin: 146.597px 79.8468px;" class="animable"></polygon></g><g id="elg74aixcykdu"><polygon points="172.8559 75.4862 173.312 77.2059 177.8172 80.8859 176.6274 76.3412 172.8559 75.4862" style="isolation: isolate; opacity: 0.2; transform-origin: 175.337px 78.1861px;" class="animable"></polygon></g><g id="eltjukf3ot7w"><path d="M165.0057,72.5684l-2.9885,2.158-5.5099-.7349-1.8845-2.7748s6.4349-.1372,10.3829,1.3517Z" style="isolation: isolate; opacity: 0.3; transform-origin: 159.814px 72.9699px;" class="animable"></path></g><g id="eli6ene1zj629"><path d="M152.7783,71.6885l1.3065,2.3799-2.7481,1.4096-6.2559-.7961-1.1629-1.3274c2.8979-.8181,5.8632-1.3757,8.8604-1.666Z" style="isolation: isolate; opacity: 0.2; transform-origin: 149.001px 73.5832px;" class="animable"></path></g><g id="el8tor23ws6ht"><path d="M142.3129,74.4266l1.2313,1.0357-3.3276,3.6286-5.2133-.0255c2.1758-1.9232,4.643-3.489,7.3096-4.6388Z" style="isolation: isolate; opacity: 0.3; transform-origin: 139.274px 76.7587px;" class="animable"></path></g></g><g id="el6lewy5oxu96" class="animable" style="transform-origin: 422.514px 147.395px;"><g id="freepik--freepik--sea-turtle--inject-2-2--inject-1" class="animable" style="transform-origin: 422.498px 147.418px;"><path d="M439.40549,140.096l4.53251-.9566s7.66649-1.8586,8.70539,1.4947l-.0522,1.8726-1.0185,.6703c-.9399,.9291-2.2045,1.4559-3.5261,1.4688-2.42859,.133-5.4383-.1898-7.3891,.8175l-1.252-5.3673Z" style="fill: rgb(0, 255, 136); transform-origin: 446.024px 142.044px;" id="el6r0388gtx99" class="animable"></path><g id="elgj0dfdzyq5c"><path d="M440.53709,139.8562c.4802,.7107,2.1874,3.3929,2.1481,4.9995-.70819,.0877-1.3973,.2912-2.0396,.6022l-1.2401-5.3619,1.1316-.2398Z" style="isolation: isolate; opacity: 0.2; transform-origin: 441.046px 142.657px;" class="animable"></path></g><g id="elvvedbe8ufm"><polygon points="449.27429 139.0326 450.33389 139.4113 449.23739 139.7315 449.27429 139.0326" style="isolation: isolate; opacity: 0.3; transform-origin: 449.786px 139.382px;" class="animable"></polygon></g><g id="elmzmuf1ji66"><polygon points="448.80989 139.3951 448.34569 140.137 447.43449 139.9684 448.008 139.4119 448.80989 139.3951" style="isolation: isolate; opacity: 0.3; transform-origin: 448.122px 139.766px;" class="animable"></polygon></g><g id="elv7tp1r5dbuc"><polygon points="450.30249 139.8765 449.91359 140.2303 451.16319 140.3944 450.91859 139.8116 450.30249 139.8765" style="isolation: isolate; opacity: 0.4; transform-origin: 450.538px 140.103px;" class="animable"></polygon></g><g id="elr68cgixei9m"><polygon points="448.46519 140.5059 449.036 140.3989 449.65579 140.5789 449.21349 140.9085 448.59109 140.8132 448.46519 140.5059" style="isolation: isolate; opacity: 0.1; transform-origin: 449.06px 140.654px;" class="animable"></polygon></g><path d="M449.89759,142.3554c.1548,.2274,.15641,.4929,.0055,.5893-.1509,.0964-.3853-.0025-.5347-.2417-.14939-.2393-.1505-.4902,.0004-.5866s.3799,.0143,.5288,.239Z" style="fill: rgb(38, 50, 56); transform-origin: 449.635px 142.531px;" id="elamlgpx4qnhw" class="animable"></path><path d="M450.15079,141.8902c.01521-.0214,.02621-.0456,.03221-.0713,.02329-.0837-.02051-.1714-.10141-.2032-.4824-.1773-1.02059-.1117-1.4463,.1763-.0697,.0535-.0828,.1533-.02929,.2229,.05349,.0696,.15329,.0827,.223,.0292h0c.34129-.2175,.76419-.2643,1.14479-.1265,.0586,.031,.1305,.0198,.177-.0274Z" style="fill: rgb(38, 50, 56); transform-origin: 449.381px 141.797px;" id="elqa487cz9nv" class="animable"></path><g id="el5sabtsy3hi4"><polygon points="445.65109 139.5129 446.73909 139.5754 445.62849 140.5761 443.07549 141.1108 444.45089 140.0152 445.65109 139.5129" style="isolation: isolate; opacity: 0.4; transform-origin: 444.907px 140.312px;" class="animable"></polygon></g><path d="M436.00869,138.9041s2.1965-2.1842,.4868-5.8264-3.8302-6.8189-5.7077-7.6675c-1.8776-.8487-6.3317-3.1052-6.8199-2.0092-.4882,1.0959,1.7723,2.6329,1.7723,2.6329,.3964,.9748,1.13681,1.7703,2.08081,2.2356,0,0,.43359,2.2068,1.50179,3.1046,1.0683,.8979,2.9898,5.1796,2.8175,6.6688l3.8684,.8612Z" style="fill: rgb(0, 255, 136); transform-origin: 430.523px 131.005px;" id="el5sxtrb9u3iw" class="animable"></path><g id="elyi98fl7aaa9"><polygon points="432.58709 135.2181 432.96109 132.1743 431.28509 132.4471 431.59859 133.9698 432.58709 135.2181" style="isolation: isolate; opacity: 0.3; transform-origin: 432.123px 133.696px;" class="animable"></polygon></g><g id="el9tzh5fd6f4s"><polygon points="432.07689 131.2809 430.85659 131.4162 429.80509 130.2755 431.05409 130.1244 432.07689 131.2809" style="isolation: isolate; opacity: 0.3; transform-origin: 430.941px 130.77px;" class="animable"></polygon></g><g id="ell96eih41c6"><polygon points="433.90279 134.4603 433.45469 135.9107 434.85329 135.856 433.90279 134.4603" style="isolation: isolate; opacity: 0.2; transform-origin: 434.154px 135.186px;" class="animable"></polygon></g><g id="elv7m413sxg5e"><polygon points="429.20529 126.584 429.07859 127.8934 428.01549 126.6043 429.20529 126.584" style="isolation: isolate; opacity: 0.2; transform-origin: 428.61px 127.239px;" class="animable"></polygon></g><g id="el27fprogzvo5"><path d="M436.00869,138.9041l-3.8981-.8746c.01741-.5357-.0609-1.0702-.231-1.5785,1.6939,.1257,3.3749,.3877,5.0267,.7837-.1704,.6167-.4771,1.1872-.8976,1.6694Z" style="isolation: isolate; opacity: 0.2; transform-origin: 434.393px 137.678px;" class="animable"></path></g><path d="M439.79409,148.5292s5.8424,.1506,7.4126,4.1805,1.5209,7.9861,.1544,11.025c-1.3664,3.0389-6.3694,7.8544-7.3263,6.2985-.95679-1.556,2.0966-5.335,1.6591-6.5202-.4374-1.1852,.1533-5.8484,.1298-7.0468-.0236-1.1985,.4707-5.7908-3.0714-3.9858l1.0418-3.9512Z" style="fill: rgb(0, 255, 136); transform-origin: 443.569px 159.432px;" id="el46ds6j1nei4" class="animable"></path><g id="elh76sd7lgsx9"><polygon points="444.23119 155.0499 442.89309 157.9155 442.48979 155.2932 444.23119 155.0499" style="isolation: isolate; opacity: 0.4; transform-origin: 443.36px 156.483px;" class="animable"></polygon></g><g id="elt7wbbirh65c"><polygon points="444.36109 157.7705 442.48349 159.4549 443.04509 161.9484 445.25979 159.9298 444.36109 157.7705" style="isolation: isolate; opacity: 0.2; transform-origin: 443.872px 159.859px;" class="animable"></polygon></g><g id="ell4t64j99v1s"><polygon points="445.42279 160.9624 444.37269 162.2408 446.36909 162.0985 445.42279 160.9624" style="isolation: isolate; opacity: 0.2; transform-origin: 445.371px 161.602px;" class="animable"></polygon></g><g id="elri53fs5b6do"><polygon points="443.287 163.8037 441.97269 165.1918 443.58069 164.8953 443.287 163.8037" style="isolation: isolate; opacity: 0.4; transform-origin: 442.777px 164.498px;" class="animable"></polygon></g><g id="elvczfrz1quw"><path d="M441.442,148.7302c.10429,1.2742,.02569,2.5567-.23321,3.8087-.4706-.5419-1.1973-.6914-2.4565-.0585l1.0655-3.9405c.5453,.0237,1.08821,.0873,1.62421,.1903Z" style="isolation: isolate; opacity: 0.2; transform-origin: 440.119px 150.539px;" class="animable"></path></g><path d="M413.70139,158.6528s-3.0215,4.0726-4.1437,7.0143c-1.1221,2.9418-4.39669,6.213-6.6733,6.057-2.2765-.156-2.519-3.593-2.8849-4.3666s1.5867-3.0037,1.0676-4.2616c-.51909-1.2579-.0969-2.6985,1.3677-3.6751,1.4647-.9766,6.6428-4.153,6.6428-4.153l4.6238,3.385Z" style="fill: rgb(0, 255, 136); transform-origin: 406.827px 163.499px;" id="el9sle9lu15av" class="animable"></path><g id="el4mjb6cqwi2v"><polygon points="408.90689 164.0993 407.71569 167.5895 405.17809 169.2618 407.703 164.1347 408.90689 164.0993" style="isolation: isolate; opacity: 0.4; transform-origin: 407.042px 166.681px;" class="animable"></polygon></g><g id="elx415xshpxyo"><polygon points="407.42329 162.5056 406.45779 165.2749 404.64339 164.1757 407.42329 162.5056" style="isolation: isolate; opacity: 0.2; transform-origin: 406.033px 163.89px;" class="animable"></polygon></g><g id="elq3mh5xfv5lg"><polygon points="408.76049 160.212 409.08279 162.3327 408.12689 162.2154 408.76049 160.212" style="isolation: isolate; opacity: 0.2; transform-origin: 408.605px 161.272px;" class="animable"></polygon></g><g id="elt8c3cobrmkp"><polygon points="403.56439 169.9349 403.94169 167.422 402.00259 169.4007 403.56439 169.9349" style="isolation: isolate; opacity: 0.2; transform-origin: 402.972px 168.678px;" class="animable"></polygon></g><g id="el5q9f67y0yr4"><path d="M412.54509,160.2769c-2.00709-1.0491-3.8958-2.3106-5.6337-3.7629,1.1851-.738,2.1607-1.3132,2.1607-1.3132l4.6293,3.452s-.4967,.6557-1.1563,1.6241Z" style="isolation: isolate; opacity: 0.2; transform-origin: 410.306px 157.739px;" class="animable"></path></g><path d="M405.82689,147.3727s-4.2446,.8578-7.58989,1.5783c-3.34531,.7205-5.958,.849-5.88331,1.9346,.0746,1.0856,4.233,1.0833,4.7157,2.2317s2.118,.7284,7.912-1.8477l.8455-3.8969Z" style="fill: rgb(0, 255, 136); transform-origin: 399.09px 150.547px;" id="el78xks1ooyf4" class="animable"></path><g id="elwbn1boriw1n"><polygon points="401.61179 150.6982 399.62709 150.4666 399.54859 151.8909 401.61179 150.6982" style="isolation: isolate; opacity: 0.2; transform-origin: 400.58px 151.179px;" class="animable"></polygon></g><g id="ellckaa5snwx"><polygon points="398.58759 150.8984 397.22539 150.0966 396.25 150.9724 397.30969 151.4299 398.58759 150.8984" style="isolation: isolate; opacity: 0.4; transform-origin: 397.419px 150.763px;" class="animable"></polygon></g><g id="elj6q2g2ynl37"><path d="M404.95979,151.2384c-.6912,.3101-1.3225,.5829-1.8994,.8302-.2473-.5769-.531-1.2633-.6512-1.7255-.1203-.4622,.5861-1.7243,1.1521-2.549l2.2612-.4591-.8627,3.9034Z" style="isolation: isolate; opacity: 0.2; transform-origin: 404.109px 149.702px;" class="animable"></path></g><path d="M405.84889,150.9175s-5.9706,3.2834-5.6136,3.9027c.3569,.6193,2.8183-.6152,3.5693-.1398,.7511,.4755,2.9697-1.5199,2.9697-1.5199l-.9254-2.243Z" style="fill: rgb(0, 255, 136); transform-origin: 403.497px 152.958px;" id="eln4u3q5l3s2" class="animable"></path><g id="el9uup6jq81ov"><path d="M406.777,153.1545s-1.61211,1.461-2.55451,1.6146c.124-.5593-.33949-1.0693-.5662-1.3435l-.6661-.8378c1.4217-.8815,2.8587-1.6702,2.8587-1.6702l.92811,2.2369Z" style="isolation: isolate; opacity: 0.2; transform-origin: 404.884px 152.843px;" class="animable"></path></g><path d="M439.399,139.3346l1.36419,3.3142s2.1847,14.6547-11.8353,18.3641c-14.0201,3.7094-24.9151-8.6927-24.9151-8.6927l-.7799-1.8839c3.1463-5.763,8.316-10.1563,14.5112-12.3317,10.31791-3.5294,21.65491,1.23,21.65491,1.23Z" style="fill: rgb(0, 255, 136); transform-origin: 422.06px 149.254px;" id="el059v34ncbht6" class="animable"></path><g id="elydlnrzuv8ea"><path d="M439.399,139.3346l1.36419,3.3142s2.1847,14.6547-11.8353,18.3641c-14.0201,3.7094-24.9151-8.6927-24.9151-8.6927l-.7799-1.8839c3.1463-5.763,8.316-10.1563,14.5112-12.3317,10.31791-3.5294,21.65491,1.23,21.65491,1.23Z" style="fill: rgb(255, 255, 255); isolation: isolate; opacity: 0.3; transform-origin: 422.06px 149.254px;" class="animable"></path></g><g id="elf8rgv19gl39"><path d="M436.67279,142.1524l3.1856,2.3558c-.18139,3.4967-1.22539,6.8941-3.0388,9.8893l-2.391-10.3829,2.2442-1.8622Z" style="isolation: isolate; opacity: 0.3; transform-origin: 437.144px 148.275px;" class="animable"></path></g><g id="elpd8py34n3qm"><path d="M432.90179,144.9702l2.3068,11.1392s-1.4152,2.1653-6.9121,2.865l-1.84949-12.5783,2.87579-2.2779,3.579,.852Z" style="isolation: isolate; opacity: 0.2; transform-origin: 430.828px 151.546px;" class="animable"></path></g><g id="elxrohmixrbf"><path d="M425.10019,146.9537l1.00381,12.2962s-3.03491,1.0468-7.14911-.5051l.5669-10.3412,1.8633-2.3492,3.7151,.8993Z" style="isolation: isolate; opacity: 0.4; transform-origin: 422.529px 152.825px;" class="animable"></path></g><g id="elc31u51rey6"><path d="M418.33019,149.1244l-1.3388,8.4395s-3.5496-.6956-5.5479-2.987l2.0351-6.0855,4.8516,.633Z" style="isolation: isolate; opacity: 0.2; transform-origin: 414.887px 153.028px;" class="animable"></path></g><g id="eli65ofh29c8g"><polygon points="412.00019 146.8071 412.48939 147.9727 410.12169 153.1637 407.87009 152.3034 406.71369 149.5267 407.89459 147.0408 412.00019 146.8071" style="isolation: isolate; opacity: 0.3; transform-origin: 409.602px 149.985px;" class="animable"></polygon></g><g id="eladh48q99o4q"><polygon points="434.98479 141.3751 432.93769 143.2763 429.90009 143.0625 428.82079 140.4637 430.91969 138.543 433.94389 138.8653 434.98479 141.3751" style="isolation: isolate; opacity: 0.4; transform-origin: 431.903px 140.91px;" class="animable"></polygon></g><g id="ela288e44zdot"><polygon points="427.01989 140.6802 428.10249 143.2875 425.12159 145.8614 422.44069 144.8429 421.45459 142.4652 423.01649 140.7669 427.01989 140.6802" style="isolation: isolate; opacity: 0.1; transform-origin: 424.779px 143.271px;" class="animable"></polygon></g><g id="elfxfhhxybq5o"><polygon points="419.68959 142.7765 420.71149 145.2491 418.54989 147.8785 414.24089 147.3906 413.20169 145.8904 415.66429 142.4526 419.68959 142.7765" style="isolation: isolate; opacity: 0.4; transform-origin: 416.957px 145.166px;" class="animable"></polygon></g><g id="el33lhy7odk96"><polygon points="435.62439 139.3744 436.12989 140.5832 439.78629 142.8155 438.46169 139.6193 435.62439 139.3744" style="isolation: isolate; opacity: 0.2; transform-origin: 437.705px 141.095px;" class="animable"></polygon></g><g id="el3auxtsx5kx9"><path d="M429.604,138.0343l-1.96351,1.8745-4.0937,.0173-1.6535-1.8351s4.6808-.7465,7.71071-.0567Z" style="isolation: isolate; opacity: 0.3; transform-origin: 425.749px 138.834px;" class="animable"></path></g><g id="eli6ye9m723ja"><path d="M420.595,138.6205l1.19219,1.605-1.8633,1.3045-4.644,.0476-.9818-.8517c2.032-.8879,4.1394-1.5926,6.29691-2.1054Z" style="isolation: isolate; opacity: 0.2; transform-origin: 418.043px 140.099px;" class="animable"></path></g><g id="elaljshtq4qcb"><path d="M413.23479,141.6693l1.0024,.632-2.06319,2.9815-3.80611,.505c1.3942-1.6216,3.037-3.0118,4.8669-4.1185Z" style="isolation: isolate; opacity: 0.3; transform-origin: 411.303px 143.729px;" class="animable"></path></g></g><g id="elk6ftieu5kg"><path d="M443.96979,139.094l-3.4004,.7177-.0006-.0009-.8493,.18-.2888-.7016s-1.1151-.4678-2.9631-1.0014c.5383-.8704,1.2578-2.7029,.0596-5.2555-1.7097-3.6421-3.8301-6.8188-5.7077-7.6675-1.8776-.8486-6.3317-3.1051-6.8199-2.0092-.4882,1.096,1.77241,2.633,1.77241,2.633,.39629,.9748,1.13669,1.7703,2.08069,2.2355,0,0,.4337,2.2068,1.5018,3.1047,.7951,.6682,2.0614,3.2096,2.5868,5.0803l-.03-.0034c.096,.2868,.1549,.5827,.19171,.8818-4.07521-.7003-9.31941-.9412-14.32721,.7718-5.0766,1.7826-9.4435,5.0722-12.59379,9.3668l-1.589,.3226-.03151,.0476c-1.511,.3106-3.5248,.7286-5.2928,1.1094-3.3453,.7204-5.9579,.849-5.8833,1.9346,.07461,1.0856,4.233,1.0833,4.7157,2.2316,.4478,1.0654,1.8935,.7777,6.7247-1.3254l.1021,.2466c-1.7067,1.0127-3.8805,2.4007-3.66089,2.7817,.35689,.6193,2.81829-.6152,3.56939-.1397,.1105,.0699,.2552,.0816,.41761,.0588-.00191,.0102,.00249,.0196,.00029,.0299,.4313-.0703,.9992-.4153,1.4924-.768,.6041,.5482,1.3582,1.1889,2.2478,1.8662-.3132,.1905-.6688,.4084-1.0513,.6467,.0205,.0172,.0423,.0327,.063,.0498-1.6106,.9961-3.6933,2.2927-4.5397,2.857-1.4646,.9765-1.8868,2.4172-1.3678,3.6751,.5192,1.2578-1.4334,3.4879-1.0675,4.2616,.3659,.7736,.6084,4.2105,2.8849,4.3665,2.2766,.156,5.5512-3.1151,6.6734-6.0569,.8784-2.3029,2.915-5.29,3.7607-6.4827,4.2374,2.0626,9.6377,3.4084,15.6094,1.8284,6.0315-1.5958,9.0595-5.2175,10.5569-8.8264,.1144-.0344,.2247-.0627,.3282-.0807,.0379-.0067,.0785-.0174,.115-.022,.1399-.0173,.2694-.0193,.3898-.0079,.0318,.003,.0608,.0102,.0913,.0151,.0911,.0146,.1769,.0369,.2568,.0672,.0302,.0115,.0611,.0217,.0899,.0352,.0982,.0463,.19051,.1006,.2718,.1691l.0072,.0071c.9997,.8551,.7727,3.2743,.7889,4.0966,.02361,1.1985-.5672,5.8616-.1298,7.0468,.4375,1.1853-2.6159,4.9643-1.6591,6.5202,.9569,1.5559,5.9599-3.2596,7.3263-6.2984,1.3665-3.0389,1.4158-6.9951-.1544-11.0251-1.034-2.6537-3.9136-3.6211-5.7645-3.9751l-.0002-.0044c-.0363-.0069-.0731-.0103-.1094-.0169-.3015-.055-.5674-.0937-.7948-.1206,.2208-1.1927,.3136-2.2946,.339-3.2193,.06851-.031,.1401-.0582,.2109-.0864,.1354-.0538,.2685-.1128,.4071-.1574,.1968-.061,.4037-.1087,.6127-.1536,.103-.0224,.2052-.047,.3093-.0644,1.7591-.3115,3.8491-.1683,5.6298-.2658,1.3216-.0128,2.5862-.5396,3.5261-1.4688l1.0185-.6702,.0522-1.8727c-1.0389-3.3532-8.7053-1.4947-8.7053-1.4947Z" style="isolation: isolate; opacity: 0.3; transform-origin: 422.529px 147.373px;" class="animable"></path></g></g><g id="freepik--freepik--sea-turtle--inject-2-3--inject-1" class="animable" style="transform-origin: 355.269px 269.263px;"><path d="M381.83279,259.6238l7.0735-1.0886s11.9846-2.2122,13.3008,3.0491l-.2404,2.8842-1.6283,.9469c-1.5292,1.353-3.525,2.0576-5.5647,1.9646-3.7576-.0022-8.37269-.7572-11.468,.63l-1.4729-8.3862Z" style="fill: rgb(0, 255, 136); transform-origin: 392.02px 263.042px;" id="eluw4cvt8dz7s" class="animable"></path><g id="elkcvztz95j0f"><path d="M383.599,259.3505c.67989,1.1374,3.08429,5.4206,2.88649,7.8955-1.1,.0749-2.1802,.3298-3.1976,.7547l-1.4551-8.3769,1.76621-.2733Z" style="isolation: isolate; opacity: 0.2; transform-origin: 384.165px 263.676px;" class="animable"></path></g><g id="elthsdketlbz"><polygon points="397.14679 258.8261 398.749 259.5009 397.03029 259.9011 397.14679 258.8261" style="isolation: isolate; opacity: 0.3; transform-origin: 397.89px 259.364px;" class="animable"></polygon></g><g id="elk7yqnclc53o"><polygon points="396.39949 259.3457 395.62019 260.4505 394.22889 260.1126 395.16119 259.3032 396.39949 259.3457" style="isolation: isolate; opacity: 0.3; transform-origin: 395.314px 259.877px;" class="animable"></polygon></g><g id="el33obp27hcdn"><polygon points="398.66079 260.2158 398.03069 260.7283 399.94429 261.0882 399.61679 260.1682 398.66079 260.2158" style="isolation: isolate; opacity: 0.4; transform-origin: 398.987px 260.628px;" class="animable"></polygon></g><g id="elbt9erzjexk4"><polygon points="395.773 261.0297 396.66249 260.9134 397.60339 261.244 396.89289 261.7146 395.94089 261.5145 395.773 261.0297" style="isolation: isolate; opacity: 0.1; transform-origin: 396.688px 261.314px;" class="animable"></polygon></g><path d="M397.82449,264.0051c.2194,.3639,.1993,.7736-.0417,.9094s-.5941-.0366-.8042-.4185-.1903-.769,.0507-.9048c.2409-.1358,.5848,.0545,.7952,.4139Z" style="fill: rgb(38, 50, 56); transform-origin: 397.405px 264.254px;" id="elwqlk4hrrbpo" class="animable"></path><path d="M398.25479,263.3091c.0254-.0317,.0444-.0682,.0558-.1072,.0431-.1271-.0169-.2662-.1389-.3221-.729-.3148-1.565-.2596-2.2462,.1484-.112,.0765-.1407,.2294-.0641,.3414,.0765,.1119,.2294,.1406,.3413,.0641h0c.5451-.3065,1.2015-.3425,1.7768-.0975,.0877,.0528,.1996,.0418,.2753-.0271Z" style="fill: rgb(38, 50, 56); transform-origin: 397.072px 263.077px;" id="el96vrghrrnj" class="animable"></path><g id="el6u14clxn1xg"><polygon points="391.51679 259.2577 393.18989 259.447 391.39119 260.8958 387.40739 261.5027 389.62259 259.93 391.51679 259.2577" style="isolation: isolate; opacity: 0.4; transform-origin: 390.299px 260.38px;" class="animable"></polygon></g><path d="M376.69479,257.4951s3.5749-3.1817,1.2486-8.946c-2.3263-5.7642-5.326-10.8455-8.1498-12.315-2.8238-1.4694-9.5018-5.3306-10.3485-3.6817-.8467,1.6488,2.5091,4.2128,2.5091,4.2128,.5282,1.5376,1.6024,2.8279,3.0187,3.6262,0,0,.4805,3.4411,2.0517,4.9173,1.5711,1.4762,4.1695,8.2452,3.7766,10.5277l5.8936,1.6587Z" style="fill: rgb(0, 255, 136); transform-origin: 369.019px 244.823px;" id="ely5yr6eilcbm" class="animable"></path><g id="elywci30wnwrs"><polygon points="371.73169 251.517 372.56849 246.8537 369.95979 247.1314 370.31339 249.5071 371.73169 251.517" style="isolation: isolate; opacity: 0.3; transform-origin: 371.264px 249.185px;" class="animable"></polygon></g><g id="eltwlpob1m2x8"><polygon points="371.28089 245.4001 369.38679 245.5046 367.86229 243.6552 369.80179 243.5289 371.28089 245.4001" style="isolation: isolate; opacity: 0.3; transform-origin: 369.572px 244.517px;" class="animable"></polygon></g><g id="elzsypa2217me"><polygon points="373.82579 250.4605 373.01079 252.6596 375.17289 252.6946 373.82579 250.4605" style="isolation: isolate; opacity: 0.2; transform-origin: 374.092px 251.578px;" class="animable"></polygon></g><g id="elz0ngw8u8osp"><polygon points="367.25229 237.9097 366.945 239.9187 365.41519 237.8394 367.25229 237.9097" style="isolation: isolate; opacity: 0.2; transform-origin: 366.334px 238.879px;" class="animable"></polygon></g><g id="elxag5e1igw3"><path d="M376.69479,257.4951l-5.9382-1.682c.0725-.8249-.00259-1.6561-.2217-2.4546,2.6023,.3385,5.173,.8863,7.6872,1.6382-.3156,.9367-.8375,1.7905-1.5273,2.4984Z" style="isolation: isolate; opacity: 0.2; transform-origin: 374.378px 255.427px;" class="animable"></path></g><path d="M381.712,272.6656s8.99949,.7313,11.07749,7.0818,1.664,12.4489-.7033,17.0199-10.496,11.5719-11.8391,9.0901c-1.34309-2.4818,3.6896-8.0504,3.116-9.916-.5735-1.8656,.736-9.0084,.802-10.8591,.06591-1.8508,1.2206-8.8924-4.3975-6.4106l1.94441-6.0061Z" style="fill: rgb(0, 255, 136); transform-origin: 386.949px 289.52px;" id="elwaov4ipqimi" class="animable"></path><g id="el4k9p5dv6lx"><polygon points="387.99979 283.1032 385.69089 287.4093 385.29279 283.3298 387.99979 283.1032" style="isolation: isolate; opacity: 0.4; transform-origin: 386.646px 285.256px;" class="animable"></polygon></g><g id="el9bjqdwid24e"><polygon points="387.96779 287.311 384.92759 289.7489 385.581 293.6433 389.16979 290.7186 387.96779 287.311" style="isolation: isolate; opacity: 0.2; transform-origin: 387.049px 290.477px;" class="animable"></polygon></g><g id="elia6so294928"><polygon points="389.333 292.3253 387.60389 294.2077 390.69559 294.1586 389.333 292.3253" style="isolation: isolate; opacity: 0.2; transform-origin: 389.15px 293.266px;" class="animable"></polygon></g><g id="elfcicr67u00o"><polygon points="385.79569 296.5259 383.64979 298.5548 386.15559 298.2348 385.79569 296.5259" style="isolation: isolate; opacity: 0.4; transform-origin: 384.903px 297.54px;" class="animable"></polygon></g><g id="elfp6gn0ksh9k"><path d="M384.23689,273.1165c.052,1.9744-.1786,3.9461-.68489,5.8552-.67971-.8761-1.78791-1.1688-3.78441-.3l1.9802-5.9875c.8391,.0831,1.6711,.2276,2.4891,.4323Z" style="isolation: isolate; opacity: 0.2; transform-origin: 382.006px 275.828px;" class="animable"></path></g><path d="M340.59789,286.0538s-5.0085,6.0241-6.9907,10.4661c-1.9823,4.4421-7.3129,9.2084-10.8113,8.7734-3.4983-.4351-3.57889-5.7575-4.0773-6.9821-.4983-1.2246,2.7041-4.498,2.0108-6.4826-.69339-1.9847,.0809-4.1709,2.4237-5.5523,2.3427-1.3814,10.6015-5.8391,10.6015-5.8391l6.8433,5.6166Z" style="fill: rgb(0, 255, 136); transform-origin: 329.632px 292.879px;" id="eld9lil9fzms6" class="animable"></path><g id="el6a4fcpv7qbl"><polygon points="332.737 294.0458 330.60149 299.3279 326.54429 301.6908 330.877 293.9977 332.737 294.0458" style="isolation: isolate; opacity: 0.4; transform-origin: 329.641px 297.844px;" class="animable"></polygon></g><g id="el8m8qcp06krq"><polygon points="330.58459 291.4608 328.85879 295.6502 326.15379 293.7996 330.58459 291.4608" style="isolation: isolate; opacity: 0.2; transform-origin: 328.369px 293.555px;" class="animable"></polygon></g><g id="elajkppgnmnv9"><polygon points="332.84319 288.037 333.15929 291.3357 331.69469 291.0732 332.84319 288.037" style="isolation: isolate; opacity: 0.2; transform-origin: 332.427px 289.686px;" class="animable"></polygon></g><g id="elbdsffjpxfx8"><polygon points="323.99759 302.5913 324.79419 298.7474 321.63409 301.6339 323.99759 302.5913" style="isolation: isolate; opacity: 0.2; transform-origin: 323.214px 300.669px;" class="animable"></polygon></g><g id="el42v8331ct0p"><path d="M338.67569,288.4602c-3.0066-1.7896-5.8123-3.8969-8.369-6.2855,1.8912-1.0373,3.4451-1.8412,3.4451-1.8412l6.8461,5.7203s-.8221,.9689-1.9222,2.4064Z" style="isolation: isolate; opacity: 0.2; transform-origin: 335.452px 284.397px;" class="animable"></path></g><path d="M329.41439,267.9811s-6.6208,.9607-11.8427,1.7864c-5.2218,.8257-9.263,.8009-9.2406,2.4819,.0224,1.6809,6.4372,2.0325,7.0838,3.8452,.6465,1.8127,3.2049,1.3044,12.3625-2.1746l1.637-5.9389Z" style="fill: rgb(0, 255, 136); transform-origin: 318.873px 272.551px;" id="elmjluqg6zj4" class="animable"></path><g id="elzrybov43sf"><polygon points="322.62839 272.7509 319.58659 272.2241 319.34389 274.4144 322.62839 272.7509" style="isolation: isolate; opacity: 0.2; transform-origin: 320.986px 273.319px;" class="animable"></polygon></g><g id="el9506xuwflwi"><polygon points="317.94619 272.8014 315.91349 271.4483 314.33409 272.7159 315.92969 273.5122 317.94619 272.8014" style="isolation: isolate; opacity: 0.4; transform-origin: 316.14px 272.48px;" class="animable"></polygon></g><g id="elgzed1y6u1cf"><path d="M327.74669,273.87c-1.09269,.4194-2.0898,.7862-3.0008,1.1184-.3322-.911-.7112-1.994-.8572-2.7172-.146-.7233,1.0514-2.6098,1.9949-3.8336l3.5272-.5152-1.6641,5.9476Z" style="isolation: isolate; opacity: 0.2; transform-origin: 326.644px 271.455px;" class="animable"></path></g><path d="M329.14569,273.4511s-9.4904,4.5549-8.99269,5.5406c.49769,.9858,4.39989-.7083,5.51789,.0893,1.118,.7975,4.7107-2.0911,4.7107-2.0911l-1.2359-3.5388Z" style="fill: rgb(0, 255, 136); transform-origin: 325.258px 276.38px;" id="el28k576ym6h8" class="animable"></path><g id="elwk1a3zhvlfp"><path d="M330.38619,276.981s-2.6114,2.116-4.0783,2.2725c.23911-.8522-.4324-1.6786-.7587-2.1209l-.9559-1.3492c2.2684-1.2384,4.5524-2.3323,4.5524-2.3323l1.2405,3.5299Z" style="isolation: isolate; opacity: 0.2; transform-origin: 327.49px 276.352px;" class="animable"></path></g><path d="M381.88789,258.4487l1.8213,5.2289s2.1185,22.7922-19.825,27.317c-21.9435,4.5247-37.6906-15.5367-37.6906-15.5367l-1.0423-2.9726c5.3456-8.6212,13.6953-14.9565,23.4375-17.7831,16.2175-4.5633,33.2991,3.7465,33.2991,3.7465Z" style="fill: rgb(0, 255, 136); transform-origin: 354.458px 272.496px;" id="elcb7mel08ctl" class="animable"></path><g id="el6eda25io1ie"><path d="M381.88789,258.4487l1.8213,5.2289s2.1185,22.7922-19.825,27.317c-21.9435,4.5247-37.6906-15.5367-37.6906-15.5367l-1.0423-2.9726c5.3456-8.6212,13.6953-14.9565,23.4375-17.7831,16.2175-4.5633,33.2991,3.7465,33.2991,3.7465Z" style="fill: rgb(255, 255, 255); isolation: isolate; opacity: 0.3; transform-origin: 354.458px 272.496px;" class="animable"></path></g><g id="el1uoacpwo41o"><path d="M377.44189,262.5625l4.7128,3.906c-.5785,5.3784-2.479,10.53-5.5321,14.9954l-2.8015-16.2205,3.6208-2.6809Z" style="isolation: isolate; opacity: 0.3; transform-origin: 377.988px 272.013px;" class="animable"></path></g><g id="elemqdea3htm7"><path d="M371.38429,266.5872l2.6071,17.3798s-2.368,3.2193-10.907,3.8291l-1.7788-19.5606,4.6306-3.2683,5.4481,1.62Z" style="isolation: isolate; opacity: 0.2; transform-origin: 367.648px 276.382px;" class="animable"></path></g><g id="elskwqq02azuk"><path d="M359.18039,268.9806l.4984,19.0533s-4.7709,1.3557-10.98479-1.3896l1.75759-15.9035,3.0748-3.4647,5.654,1.7045Z" style="isolation: isolate; opacity: 0.4; transform-origin: 354.186px 277.822px;" class="animable"></path></g><g id="elwymgkukcawb"><path d="M348.55189,271.7509l-2.78589,12.9041s-5.416-1.3762-8.30281-5.0815l3.6589-9.2134,7.4298,1.3908Z" style="isolation: isolate; opacity: 0.2; transform-origin: 343.008px 277.508px;" class="animable"></path></g><g id="elel4r97p5u5"><polygon points="338.98539 267.6357 339.64049 269.4756 335.54479 277.2807 332.14509 275.7614 330.59849 271.3794 332.63229 267.6456 338.98539 267.6357" style="isolation: isolate; opacity: 0.3; transform-origin: 335.119px 272.458px;" class="animable"></polygon></g><g id="el1c6jby06cy"><polygon points="374.90439 261.2194 371.58419 263.9772 366.91689 263.3881 365.47379 259.2871 368.87549 256.5036 373.51309 257.259 374.90439 261.2194" style="isolation: isolate; opacity: 0.4; transform-origin: 370.189px 260.24px;" class="animable"></polygon></g><g id="el514b0b4htel"><polygon points="362.67739 259.4672 364.12479 263.5817 359.30679 267.2975 355.25829 265.4974 353.94019 261.7454 356.49459 259.2591 362.67739 259.4672" style="isolation: isolate; opacity: 0.1; transform-origin: 359.032px 263.278px;" class="animable"></polygon></g><g id="elp2r7avu966o"><polygon points="351.191 262.0749 352.55619 265.9763 348.99719 269.8477 342.392 268.7271 340.917 266.3243 345.00939 261.2315 351.191 262.0749" style="isolation: isolate; opacity: 0.4; transform-origin: 346.737px 265.54px;" class="animable"></polygon></g><g id="el0y3b5g1goesq"><polygon points="376.06179 258.1878 376.73839 260.0956 382.188 263.8513 380.41769 258.8079 376.06179 258.1878" style="isolation: isolate; opacity: 0.2; transform-origin: 379.125px 261.02px;" class="animable"></polygon></g><g id="el9428btevrel"><path d="M366.88959,255.6064l-3.189,2.7239-6.3162-.3229-2.394-2.9719s7.2843-.7518,11.8992,.5709Z" style="isolation: isolate; opacity: 0.3; transform-origin: 360.94px 256.576px;" class="animable"></path></g><g id="elkiff5en20se"><path d="M352.94249,255.7413l1.702,2.5777-2.9857,1.8531-7.1677-.3232-1.4418-1.3975c3.2104-1.1962,6.5213-2.1032,9.8932-2.7101Z" style="isolation: isolate; opacity: 0.2; transform-origin: 348.847px 257.957px;" class="animable"></path></g><g id="elfoak6xbis8n"><path d="M341.32869,259.8158l1.4922,1.0604-3.4372,4.423-5.9143,.4541c2.2892-2.3825,4.9419-4.3866,7.8593-5.9375Z" style="isolation: isolate; opacity: 0.3; transform-origin: 338.145px 262.785px;" class="animable"></path></g></g></g><defs>     <filter id="active" height="200%">         <feMorphology in="SourceAlpha" result="DILATED" operator="dilate" radius="2"></feMorphology>                <feFlood flood-color="#32DFEC" flood-opacity="1" result="PINK"></feFlood>        <feComposite in="PINK" in2="DILATED" operator="in" result="OUTLINE"></feComposite>        <feMerge>            <feMergeNode in="OUTLINE"></feMergeNode>            <feMergeNode in="SourceGraphic"></feMergeNode>        </feMerge>    </filter>    <filter id="hover" height="200%">        <feMorphology in="SourceAlpha" result="DILATED" operator="dilate" radius="2"></feMorphology>                <feFlood flood-color="#ff0000" flood-opacity="0.5" result="PINK"></feFlood>        <feComposite in="PINK" in2="DILATED" operator="in" result="OUTLINE"></feComposite>        <feMerge>            <feMergeNode in="OUTLINE"></feMergeNode>            <feMergeNode in="SourceGraphic"></feMergeNode>        </feMerge>            <feColorMatrix type="matrix" values="0   0   0   0   0                0   1   0   0   0                0   0   0   0   0                0   0   0   1   0 "></feColorMatrix>    </filter></defs></svg>